<svg width="12" height="16" viewBox="0 0 12 16" fill="none" xmlns="http://www.w3.org/2000/svg">
<path d="M7.06934 1.29785C7.06934 0.883638 6.73355 0.547852 6.31934 0.547852C5.90512 0.547852 5.56934 0.883638 5.56934 1.29785L7.06934 1.29785ZM5.78901 15.2324C6.0819 15.5253 6.55677 15.5253 6.84967 15.2324L11.6226 10.4595C11.9155 10.1666 11.9155 9.6917 11.6226 9.39881C11.3297 9.10591 10.8549 9.10591 10.562 9.39881L6.31934 13.6414L2.0767 9.39881C1.7838 9.10591 1.30893 9.10591 1.01603 9.39881C0.723141 9.6917 0.723141 10.1666 1.01603 10.4595L5.78901 15.2324ZM5.56934 1.29785L5.56934 14.7021L7.06934 14.7021L7.06934 1.29785L5.56934 1.29785Z" fill="white"/>
</svg>
