<svg width="26" height="22" viewBox="0 0 26 22" fill="none" xmlns="http://www.w3.org/2000/svg">
<path d="M11.2486 20.2711L11.603 19.9184L11.2486 20.2711ZM2.8499 11.8328L2.49551 12.1855L2.8499 11.8328ZM14.7514 20.2711L15.1058 20.6238L14.7514 20.2711ZM11.782 2.85862L12.1364 2.5059L12.1364 2.5059L11.782 2.85862ZM23.1501 11.8328L22.7957 11.4801L23.1501 11.8328ZM14.218 2.85862L14.5724 3.21134L14.218 2.85862ZM13 4.08237L12.6456 4.43509C12.7394 4.52937 12.867 4.58237 13 4.58237C13.133 4.58237 13.2605 4.52937 13.3544 4.43509L13 4.08237ZM11.603 19.9184L3.20428 11.4801L2.49551 12.1855L10.8942 20.6238L11.603 19.9184ZM14.397 19.9184C13.6252 20.6939 12.3748 20.6939 11.603 19.9184L10.8942 20.6238C12.0569 21.792 13.9431 21.792 15.1058 20.6238L14.397 19.9184ZM3.20428 3.21134C5.47536 0.929553 9.15653 0.929554 11.4276 3.21134L12.1364 2.5059C9.47439 -0.168632 5.15749 -0.168633 2.49551 2.5059L3.20428 3.21134ZM2.49551 2.5059C-0.165171 5.17912 -0.165171 9.51231 2.49551 12.1855L3.20428 11.4801C0.931907 9.19701 0.931906 5.49443 3.20428 3.21134L2.49551 2.5059ZM22.7957 11.4801L14.397 19.9184L15.1058 20.6238L23.5045 12.1855L22.7957 11.4801ZM22.7957 3.21134C25.0681 5.49443 25.0681 9.19701 22.7957 11.4801L23.5045 12.1855C26.1652 9.51231 26.1652 5.17912 23.5045 2.5059L22.7957 3.21134ZM14.5724 3.21134C16.8435 0.929554 20.5246 0.929554 22.7957 3.21134L23.5045 2.5059C20.8425 -0.168632 16.5256 -0.168631 13.8636 2.5059L14.5724 3.21134ZM13.3544 4.43509L14.5724 3.21134L13.8636 2.5059L12.6456 3.72965L13.3544 4.43509ZM11.4276 3.21134L12.6456 4.43509L13.3544 3.72965L12.1364 2.5059L11.4276 3.21134Z" fill="#EEB116"/>
</svg>
