<svg width="23" height="22" viewBox="0 0 23 22" fill="none" xmlns="http://www.w3.org/2000/svg">
<path fill-rule="evenodd" clip-rule="evenodd" d="M15.75 2.25V3.93953L17.75 5.53953V2.25H15.75ZM19.25 6.73953V2C19.25 1.30964 18.6904 0.75 18 0.75H15.5C14.8097 0.75 14.25 1.30964 14.25 2V2.73953L13.8426 2.41362C12.4731 1.31796 10.527 1.31796 9.15742 2.41362L1.03151 8.91435C0.70806 9.17311 0.655619 9.64507 0.914376 9.96852C1.17313 10.292 1.6451 10.3444 1.96855 10.0857L2.75003 9.46047V19.75H1.50003C1.08581 19.75 0.750028 20.0858 0.750028 20.5C0.750028 20.9142 1.08581 21.25 1.50003 21.25H21.5C21.9142 21.25 22.25 20.9142 22.25 20.5C22.25 20.0858 21.9142 19.75 21.5 19.75H20.25V9.46047L21.0315 10.0857C21.355 10.3444 21.8269 10.292 22.0857 9.96852C22.3444 9.64507 22.292 9.17311 21.9685 8.91435L19.25 6.73953ZM18.75 8.26047L12.9056 3.58492C12.0838 2.92753 10.9162 2.92753 10.0945 3.58492L4.25003 8.26047V19.75H7.75003L7.75003 15.4506C7.74999 14.7858 7.74996 14.2129 7.81163 13.7542C7.87773 13.2625 8.02679 12.7913 8.40904 12.409C8.79128 12.0268 9.26255 11.8777 9.75418 11.8116C10.2129 11.7499 10.7858 11.75 11.4507 11.75H11.5494C12.2143 11.75 12.7871 11.7499 13.2459 11.8116C13.7375 11.8777 14.2088 12.0268 14.591 12.409C14.9733 12.7913 15.1223 13.2625 15.1884 13.7542C15.2501 14.2129 15.2501 14.7858 15.25 15.4506L15.25 19.75H18.75V8.26047ZM13.75 19.75V15.5C13.75 14.7717 13.7484 14.3009 13.7018 13.954C13.6581 13.6287 13.5875 13.5268 13.5304 13.4697C13.4733 13.4126 13.3713 13.342 13.046 13.2982C12.6991 13.2516 12.2283 13.25 11.5 13.25C10.7717 13.25 10.3009 13.2516 9.95406 13.2982C9.62875 13.342 9.52679 13.4126 9.4697 13.4697C9.4126 13.5268 9.34199 13.6287 9.29826 13.954C9.25162 14.3009 9.25003 14.7717 9.25003 15.5V19.75H13.75ZM11.5 6.75C10.8097 6.75 10.25 7.30964 10.25 8C10.25 8.69036 10.8097 9.25 11.5 9.25C12.1904 9.25 12.75 8.69036 12.75 8C12.75 7.30964 12.1904 6.75 11.5 6.75ZM8.75003 8C8.75003 6.48122 9.98124 5.25 11.5 5.25C13.0188 5.25 14.25 6.48122 14.25 8C14.25 9.51878 13.0188 10.75 11.5 10.75C9.98124 10.75 8.75003 9.51878 8.75003 8Z" fill="#EEB116"/>
</svg>
