<svg width="1447" height="673" viewBox="0 0 1447 673" fill="none" xmlns="http://www.w3.org/2000/svg">
<rect x="3.5" width="1440" height="673" fill="white"/>
<path d="M260 592.5L450.5 612.5L647.33 631.484C647.443 631.495 647.557 631.496 647.671 631.487L1445 572M226.5 588L202 585M1.5 638C5.49722 637.6 234.515 623.686 308.845 620.008C308.955 620.002 309.055 620.006 309.163 620.019L647.305 658.978C647.435 658.992 647.565 658.995 647.695 658.984L1445 594.5" stroke="black" stroke-opacity="0.3"/>
<path d="M1382.5 561V576M1382.5 561H1388M1382.5 561H1381V549.5H1390V561H1388M1388 561V576M1237.5 569.5V587M1237.5 569.5H1243.5M1237.5 569.5H1235V557H1245.5V569.5H1243.5M1243.5 569.5V587" stroke="black" stroke-opacity="0.3"/>
<path d="M1081 578.5V598.5M1081 578.5H1087M1081 578.5H1078V566H1089.5V578.5H1087M1087 598.5V578.5M878 614V590.5M878 590.5H881V577H869V590.5H872M878 590.5H872M872 590.5V614.5M645.5 631V605M645.5 605H639M645.5 605H648.5V587.5H635.5V605H639M639 605V631M448.5 612V587M448.5 587H443.5M448.5 587H450.5V574.5H441V587H443.5M443.5 587V612M271.5 593V572M271.5 572H265.5M271.5 572H274V561H268.5L264 572H265.5M265.5 572V593" stroke="black" stroke-opacity="0.3"/>
<path d="M421.629 546.382H338.628V375.058H332.243V194.157H327.986M421.629 546.382V173.938L327.986 194.157M421.629 546.382V551.702V557.023L551.452 563.408H566.35M327.986 194.157L421.629 162.233V156.912H417.373L470.579 88.8082M470.579 88.8082L556.773 152.656M470.579 88.8082L633.39 114.347M556.773 152.656L655.737 132.437M556.773 152.656L633.39 114.347M655.737 132.437L813.227 74.9746M655.737 132.437V566.6M813.227 74.9746L1112.25 292.056H1107.99V550.638L655.737 566.6M813.227 74.9746L633.39 114.347M655.737 566.6L645.095 566.22M566.35 563.408V166.489L645.095 152.656V566.22M566.35 563.408L645.095 566.22M355.654 376.122L374.808 375.058V512.963L354.589 513.394L355.654 376.122Z" stroke="black" stroke-opacity="0.3"/>
<path d="M1108 539.5C1128.82 540.707 1176.61 545.056 1189.63 550.321C1191.03 550.888 1190.72 552.399 1189.22 552.63C1145.93 559.304 808.746 573.044 642.5 579.5L300.034 560.26C297.736 560.131 297.439 556.859 299.677 556.319L302.913 555.538C305.136 555.002 304.864 551.758 302.583 551.599L272.5 549.5M238 546.5H218.673C216.226 546.5 215.92 542.949 218.33 542.53L241.5 538.5M278 536L338.5 531" stroke="black" stroke-opacity="0.3"/>
<path d="M480.155 127.116L447.168 167.552V521.185L535.49 524.034M480.155 127.116L535.49 169.681V524.034M480.155 127.116L473.771 121.795L436.526 166.488V520.842L535.49 524.034M502.502 411.237L471.642 413.365V369.736L502.502 367.608M502.502 411.237V367.608M502.502 411.237V414.429L466.322 416.557V364.415L502.502 362.287V367.608M502.502 286.734L471.642 290.991V200.54L502.502 196.284M502.502 286.734V196.284M502.502 286.734V289.927L466.322 294.183V195.22L502.502 190.963V196.284" stroke="black" stroke-opacity="0.3"/>
<path d="M829.19 125.93L806.843 110.091L675.956 157.976V527.228L829.19 523.237M829.19 125.93V523.237M829.19 125.93L906.871 180.992M829.19 523.237L906.871 521.214M906.871 180.992L1084.58 306.954V516.586L906.871 521.214M906.871 180.992V521.214M953.623 238.184V348.853H927.02V238.184H953.623ZM1006.23 273.966V384.635H979.629V273.966H1006.23ZM1059.04 313.339V417.623H1032.44V313.339H1059.04Z" stroke="black" stroke-opacity="0.3"/>
<path d="M706.815 296.312V300.569L794.074 304.825V300.569M706.815 296.312L745.124 297.377V219.695L706.815 217.567M706.815 296.312V217.567M794.074 300.569L754.701 299.505V220.76L794.074 222.888M794.074 300.569V222.888M794.074 222.888V213.311M794.074 213.311V137.758L745.124 156.263M794.074 213.311L754.701 210.118V152.643M706.815 217.567V204.798M706.815 204.798V170.746L745.124 156.263M706.815 204.798L745.124 207.99V156.263M706.815 364.416V359.096L796.202 361.224V366.545M706.815 364.416L746.188 365.48V484.662H706.815M706.815 364.416V484.662M706.815 484.662V489.983H796.202V484.662M796.202 484.662H752.573V365.808L796.202 366.545M796.202 484.662V366.545" stroke="black" stroke-opacity="0.3"/>
<path d="M1084.58 516.587H1092.03V303.762L813.228 106.899L675.956 157.977" stroke="black" stroke-opacity="0.3"/>
<path d="M224 618L249.5 616.5L301.5 457L84 368.5M224 618L217 615L263 477M224 618L271 477M263 477H271M263 477L98.1348 411M271 477L99.5 407L98.1348 411M84 368.5H76.5L71.0215 384.5M84 368.5L1 607M1 589L45.3413 459.5M21 637L84.1413 452M98.1348 411L85.3359 448.5M181.5 470L146.5 573.5M123 567L154.5 475.5L85.3359 448.5M122 555.5L149 476.5L84.1413 452M84.1413 452L85.3359 448.5M3.5 388L71.0215 384.5M71.0215 384.5L69.8231 388M69.8231 388L68.2823 392.5M69.8231 388L11.5 391.078M3.5 391.5L11.5 391.078M68.2823 392.5L66.9127 396.5M68.2823 392.5L24.5 395.203M3.5 396.5L24.5 395.203M66.9127 396.5L65.5431 400.5M66.9127 396.5L31.5 398.734M3.5 400.5L31.5 398.734M65.5431 400.5L64.0023 405M65.5431 400.5L41.5 402.244M3.5 405L41.5 402.244M64.0023 405L3.5 409M64.0023 405L58.8662 420M58.8662 420H3.5M58.8662 420L57.1542 425M57.1542 425L53.3878 436M57.1542 425H21.5M3.5 425H21.5M53.3878 436L51.5045 441.5M53.3878 436H45.3413M3.5 436H45.3413M51.5045 441.5H3.5M51.5045 441.5L47.2245 454M47.2245 454H3.5M47.2245 454L45.3413 459.5M45.3413 459.5H3.5M45.3413 436L21.5 425M11.5 391.078L24.5 395.203M31.5 398.734L41.5 402.244" stroke="black" stroke-opacity="0.3"/>
<path d="M96 418H116M93 425H134M91.5 431H148M170 439.5H88.5L181.5 470.5M112 447H187.5M127 452H200.5M145 458H215.5M160.5 463.5H229M177 469H243.5" stroke="black" stroke-opacity="0.3"/>
<path d="M49 555.003C50.8554 555.467 53.0825 556.148 55.5 557.046M47 635.003C56.4221 629.747 72.053 620.583 84.5998 612.169M55.5 557.046C65.7805 560.866 79.5039 568.619 82.7216 580.354C82.9145 581.057 83.4352 581.635 84.1317 581.851C94.339 585.023 97.9004 587.189 102.462 596.395C102.797 597.07 102.716 597.882 102.212 598.443C99.0366 601.977 92.4168 606.927 84.5998 612.169M55.5 557.046C77.4638 531.043 163.217 533.992 101.307 604.653C101.114 604.873 100.861 605.064 100.593 605.181L84.5998 612.169M181.264 613.874C209.135 600.153 205.22 559.433 192.194 547.039C191.522 546.399 190.477 546.421 189.748 546.996C158.252 571.825 135.623 578.587 127.083 578.987C126.402 579.019 125.746 579.378 125.375 579.95C101.411 616.922 150.45 618.949 180.719 614.049C180.908 614.018 181.092 613.959 181.264 613.874Z" stroke="black" stroke-opacity="0.3"/>
<path d="M1324.5 478.5C1356.33 462.333 1407.5 428.999 1403.5 390.999C1402.18 383.247 1397.64 382.573 1391.5 384.273M1306 366.5C1338.5 359 1337 382.499 1355.5 390.999C1367 396.285 1381.41 387.069 1391.5 384.273M1276.5 458C1264.12 464.604 1217.59 460.578 1209.71 433.286C1209.58 432.834 1209.8 432.357 1210.19 432.094C1215.43 428.565 1224.91 412.91 1201 400C1178.33 387.758 1202.12 382.505 1211.97 379.395C1212.85 379.116 1212.81 377.985 1211.91 377.758C1192.8 372.937 1186 385.72 1183.77 384.719C1183.57 384.626 1183.5 384.376 1183.5 384.149C1183.64 367.758 1193.4 350.882 1179 334.499C1164.65 318.172 1177.72 311.147 1173.15 309.064C1173.06 309.021 1172.96 308.967 1172.88 308.902C1155.93 294.959 1129.24 277.525 1162.7 243.802C1162.88 243.614 1163 243.348 1163 243.083C1163.11 228.787 1168.83 217.745 1151 191.499C1133.59 165.87 1241.52 143.982 1274.87 164.734C1275.74 165.28 1276.83 164.409 1276.28 163.535C1271.3 155.63 1260.59 151.991 1241.18 147.65C1240.77 147.559 1240.46 147.238 1240.42 146.827C1238.5 123.733 1314.26 81.3511 1339.26 139.933C1339.41 140.27 1339.72 140.521 1340.08 140.56C1381.61 144.989 1440.94 166.617 1389.73 186.835C1389 187.121 1388.78 188.113 1389.39 188.601C1410.93 205.862 1435.71 235.214 1445.8 248.239C1445.93 248.414 1446 248.62 1446 248.841V320C1444.67 337.167 1434.3 367.801 1403.5 353C1365 334.499 1420 367 1410 371C1400 375 1383.5 377.548 1391.5 384.273" stroke="black" stroke-opacity="0.3" stroke-linecap="round" stroke-linejoin="round"/>
<path d="M1302 342C1304.33 336.833 1309 325.8 1309 323C1309 319.5 1325 304 1328 304C1330.4 304 1339 305.333 1343 306M1309 315.5C1310.65 314.098 1312.8 312.247 1315 310.312M1343 274.5L1338 287C1333.83 290.833 1325.5 298.8 1325.5 300C1325.5 300.436 1324.05 301.983 1321.94 304M1350 281C1342.8 284.6 1339.67 288.167 1339 289.5L1330 299C1334.5 298.167 1343.6 296.2 1344 295C1344.5 293.5 1355 281.5 1354 280M1358 289.5C1354.4 293.9 1343.17 299.667 1338 302L1344 304L1351 301M1351 301L1359 292.5M1351 301L1361 299.5M1315 310.312C1316.83 305.374 1320.5 295 1320.5 293M1315 310.312C1317.46 308.144 1319.98 305.87 1321.94 304M1321.94 304C1322.5 300 1321 293.5 1325.5 286M1309 300C1309.4 304.4 1305.5 315.167 1303.5 320C1303 316.333 1300.9 308.4 1296.5 306C1298.83 309.167 1303.2 317 1302 323C1300.8 329 1297.17 333.5 1295.5 335C1293.67 334.667 1290.1 331.1 1290.5 319.5C1287.7 311.5 1283.67 306.833 1282 305.5M1280 305.5C1280.99 306.77 1282.39 308.776 1283.69 311M1284 313.5C1281.67 316.167 1277.3 322 1278.5 324C1279.7 326 1280 327.833 1280 328.5C1282.4 338.9 1285.67 344.833 1287 346.5C1288.5 344.333 1291.3 339.7 1290.5 338.5C1289.5 337 1287 325.5 1287 320C1287 317.463 1285.45 314.029 1283.69 311M1284.5 352C1283.67 347.333 1281.8 337.9 1281 337.5C1279.83 334.333 1277.4 327.2 1277 324C1276.6 320.8 1270.83 319 1268 318.5C1269.37 318.329 1270.97 318.64 1272.5 319.144M1283.69 311L1278.68 319.5M1272.5 319.144C1274.54 319.817 1276.45 320.833 1277.5 321.5L1278.68 319.5M1272.5 319.144C1271.67 310.262 1270.7 290 1273.5 280M1278.68 319.5C1276.45 311.333 1273 291 1277 275M1268.5 317C1268 316.5 1251 302.5 1246.5 281C1246.5 294.6 1261.83 313.667 1269.5 321.5" stroke="black" stroke-opacity="0.3"/>
<path d="M1296.87 547L1300.5 524.994V489.343C1299.2 483.622 1294.01 477.9 1294.01 459.415C1292.2 457.214 1288.25 452.813 1287.01 452.813C1286.17 451.756 1282.85 448.558 1281.3 447.091H1270.92M1270.92 446.211C1273.82 446.563 1277.66 446.064 1279.22 445.771C1277.58 445.037 1273.56 443.042 1270.66 440.929C1267.02 438.289 1262.09 439.169 1251.45 443.13L1261.31 438.289C1258.98 436.528 1253.53 433.887 1250.41 437.408H1248.34M1248.34 435.648C1251.45 436.528 1253.27 434.768 1253.79 434.768C1253.35 433.741 1252.07 431.863 1250.41 432.567C1248.75 433.271 1244.36 431.1 1242.37 429.926C1241.5 429.486 1239.25 428.87 1237.18 429.926C1235.1 430.982 1234.41 430.072 1234.32 429.485M1234.32 429.045C1238.89 427.989 1241.76 428.312 1242.63 428.605C1241.85 426.845 1239.15 422.619 1234.58 419.803H1229.13L1225.5 417.602M1232.77 416.722C1233.11 417.162 1234.17 418.394 1235.62 419.803C1238.32 420.507 1241.76 425.084 1243.15 427.285L1241.59 420.683M1233.54 418.482L1229.13 418.922M1241.59 420.683L1238.48 415.401M1241.59 420.683L1240.55 413.201L1237.96 411M1241.33 413.201C1242.99 430.454 1246.87 432.713 1248.6 431.686H1252.49C1252.14 428.752 1250.98 422.531 1249.12 421.123C1250.93 421.563 1253.01 427.285 1253.79 432.567C1255.66 436.441 1266.68 437.995 1271.95 438.289C1277.77 442.866 1279.31 442.234 1280 441.5C1279.91 439.153 1279.02 434.873 1273 431C1266.98 427.127 1261.87 424.087 1261 423.5L1254.83 423.764M1292 413.5L1289 417.5C1287.17 418.167 1282.6 420.5 1279 424.5C1275.4 428.5 1275.17 430.167 1275.5 430.5C1279.5 434 1282.5 440.929 1284 444.5C1284.8 438.5 1281.15 433 1279.22 431C1280.31 431.522 1282.8 434.354 1284 441.5C1285.2 448.646 1291.17 450.811 1294.01 451C1295.67 448.833 1299 444.4 1299 444C1299 443.5 1300 433.5 1291 422.5C1297.8 429.3 1299.83 437 1300 440C1300.67 436.5 1301.7 429.3 1300.5 428.5C1299 427.5 1296 418 1293 419.5C1290 421 1291 419.5 1285.5 422.5L1294 418L1292 409.5C1292.83 412.5 1294.7 418.5 1295.5 418.5C1296.3 418.5 1298.5 421.5 1299.5 423M1261 422L1273 429C1272.4 426.101 1269.47 419.322 1262.5 415.401M1263.5 410C1263.9 410.4 1268 416.833 1270 420C1272 421.2 1273.83 426.167 1274.5 428.5C1276.31 427.333 1279.8 422.5 1279.22 412.5M1284.5 406C1281.7 407.2 1280.67 411.5 1280.5 413.5C1280.9 416.3 1280 420 1279.5 421.5L1286 417.5M1314 545L1311.5 521.5L1312.5 487C1312.33 485.5 1312.8 480.7 1316 473.5C1319.2 466.3 1319.67 454.833 1319.5 450C1323 446.667 1330.1 438.2 1330.5 431C1333.5 430 1336.5 427 1339 422.5C1337 425.7 1332.5 428.5 1330.5 429.5L1334.5 420.5M1337 408C1335.83 412.5 1333.2 421.9 1332 423.5C1330.8 425.1 1328.5 432.167 1327.5 435.5V417.5C1328 442 1323.5 443 1319.5 447C1318.83 445.167 1318.1 439.8 1320.5 433C1321.7 425.8 1321.67 422.333 1321.5 421.5L1329.5 404M1313 391.5C1312.33 392.833 1310.5 396.5 1308.5 400.5C1310.1 406.5 1306.83 413 1305 415.5C1303.67 414.667 1301 412.3 1301 409.5C1300 406 1298 405.5 1299 400.5C1299.41 398.436 1300.2 396.637 1301 395.243M1305.5 385.5L1303 392.5C1302.52 392.984 1301.75 393.936 1301 395.243M1292 385.5C1292.8 390.7 1296 398 1297.5 401C1298.33 397.5 1299 388.7 1295 381.5C1296.6 382.3 1298.67 389.833 1299.5 393.5C1300.67 389.833 1302.8 382.2 1302 381C1302 382.833 1301.8 387 1301 389C1300.2 391 1300.67 393.995 1301 395.243M1301 474.5C1298.67 471.57 1295 462.969 1299 452C1303 441.031 1302.67 439.43 1302 440C1303 444.5 1304.2 457.7 1301 474.5ZM1313 468.5C1316 465.333 1320.5 453.4 1314.5 431L1312.5 435.5L1313 468.5ZM1318 439.5C1319.5 432.667 1321.8 417.9 1319 413.5L1315 428.5L1318 439.5ZM1312.5 426.5C1311 424.667 1308.4 419.5 1310 413.5C1311.6 407.5 1311.67 402.667 1311.5 401L1312.5 398C1316.5 401.5 1318 406 1318 409.5C1318 412.3 1314.33 422 1312.5 426.5Z" stroke="black" stroke-opacity="0.3"/>
</svg>
