<svg width="18" height="17" viewBox="0 0 18 17" fill="none" xmlns="http://www.w3.org/2000/svg">
<path fill-rule="evenodd" clip-rule="evenodd" d="M0.827637 5.25C0.827637 2.48858 3.06621 0.25 5.82764 0.25H12.6092C15.3707 0.25 17.6092 2.48858 17.6092 5.25V11.75C17.6092 14.5114 15.3707 16.75 12.6092 16.75H5.82763C3.06621 16.75 0.827637 14.5114 0.827637 11.75V5.25ZM12.8152 8.49745C12.8152 10.4502 11.2052 12.0332 9.21911 12.0332C7.23306 12.0332 5.62305 10.4502 5.62305 8.49745C5.62305 6.54473 7.23306 4.96174 9.21911 4.96174C11.2052 4.96174 12.8152 6.54473 12.8152 8.49745ZM14.0141 4.96261C14.6761 4.96261 15.2128 4.43495 15.2128 3.78404C15.2128 3.13313 14.6761 2.60547 14.0141 2.60547C13.3521 2.60547 12.8154 3.13313 12.8154 3.78404C12.8154 4.43495 13.3521 4.96261 14.0141 4.96261Z" fill="#726F6F"/>
</svg>
