<svg width="37" height="36" viewBox="0 0 37 36" fill="none" xmlns="http://www.w3.org/2000/svg">
<path d="M8.73321 1.2979C6.95214 2.62891 6.8085 2.7917 6.93299 3.28963C7.01917 3.62478 10.3802 6.12402 10.7441 6.12402C11.2516 6.12402 11.6251 5.53991 11.4335 5.0324C11.4048 4.94622 11.0697 4.65895 10.6962 4.38126L10.0163 3.87375L15.733 3.84502C18.8738 3.83544 24.0255 3.83544 27.1663 3.84502L32.883 3.87375L32.2031 4.38126C31.8297 4.65895 31.4945 4.94622 31.4658 5.0324C31.2743 5.53991 31.6477 6.12402 32.1552 6.12402C32.5191 6.12402 35.8802 3.62478 35.9664 3.28963C36.0908 2.7917 35.9472 2.62891 34.1661 1.2979C32.2797 -0.1193 32.0786 -0.205481 31.6477 0.234999C31.4179 0.455239 31.3509 0.780811 31.4658 1.08723C31.4945 1.17341 31.8297 1.46068 32.2031 1.73838L32.883 2.24589L27.1663 2.27461C24.0255 2.28419 18.8738 2.28419 15.733 2.27461L10.0163 2.24589L10.6962 1.73838C11.0697 1.46068 11.4048 1.17341 11.4335 1.08723C11.5484 0.780811 11.4814 0.455239 11.2516 0.234999C10.8207 -0.205481 10.6196 -0.1193 8.73321 1.2979Z" fill="#8C8A8A"/>
<path d="M2.70991 7.01436C2.595 7.08139 1.93428 7.87617 1.25441 8.79543C-0.105332 10.6148 -0.191513 10.8159 0.239391 11.2468C0.459631 11.4766 0.785203 11.5436 1.09162 11.4287C1.1778 11.4 1.46507 11.0649 1.74277 10.6914L2.25028 10.0115L2.279 15.7282C2.28858 18.869 2.28858 24.0207 2.279 27.1615L2.25028 32.8782L1.74277 32.1983C1.46507 31.8249 1.1778 31.4897 1.09162 31.461C0.584115 31.2695 0 31.6429 0 32.1504C0 32.5143 2.49924 35.8754 2.83439 35.9615C3.33233 36.086 3.49511 35.9424 4.82613 34.1613C6.24332 32.2749 6.3295 32.0738 5.88902 31.6429C5.66878 31.4131 5.34321 31.3461 5.03679 31.461C4.95061 31.4897 4.66334 31.8249 4.38565 32.1983L3.87814 32.8782L3.84941 27.1615C3.83984 24.0207 3.83984 18.869 3.84941 15.7282L3.87814 10.0115L4.38565 10.6914C4.66334 11.0649 4.95061 11.4 5.03679 11.4287C5.34321 11.5436 5.66878 11.4766 5.88902 11.2468C6.31993 10.8159 6.23375 10.6148 4.87401 8.79543C3.68663 7.20587 3.38978 6.89945 3.06421 6.89945C2.9876 6.89945 2.82482 6.94733 2.70991 7.01436Z" fill="#8C8A8A"/>
<path d="M7.13392 7.12942L6.89453 7.35923V21.445V35.5308L7.13392 35.7606L7.36374 36H21.4495H35.5353L35.7651 35.7606L36.0045 35.5308V21.445V7.35923L35.7651 7.12942L35.5353 6.89003H21.4495H7.36374L7.13392 7.12942ZM34.4724 17.6148V26.8074H33.0169C31.2358 26.8074 30.5081 26.951 29.4069 27.4968C27.463 28.4544 26.0554 30.6664 26.0458 32.773C26.0458 33.1369 26.0937 33.2805 26.2852 33.4625L26.515 33.7018H30.4985H34.4724V34.0849V34.4679H21.4495H8.42664V21.445V8.42213H21.4495H34.4724V17.6148ZM34.4724 30.2546V32.1697H31.0635H27.6545L27.712 31.8537C27.9227 30.8004 28.9473 29.4694 29.9623 28.9236C30.8432 28.4544 31.389 28.3491 33.0169 28.3491L34.4724 28.3395V30.2546Z" fill="#8C8A8A"/>
<path d="M23.987 10.1935C23.8337 10.3371 23.7476 10.5382 23.7476 10.7202C23.7476 10.9021 23.8337 11.1032 23.987 11.2468C24.2072 11.4766 24.2646 11.4862 25.5191 11.4862H26.8118V11.8692V12.2523H25.5191C24.2646 12.2523 24.2072 12.2618 23.987 12.4916C23.7571 12.7119 23.7476 12.7598 23.7476 14.1674C23.7476 15.575 23.7571 15.6229 23.987 15.8431C24.2168 16.0825 24.2359 16.0825 26.0457 16.0825C27.8555 16.0825 27.8747 16.0825 28.1045 15.8431C28.2577 15.6995 28.3439 15.4984 28.3439 15.3165C28.3439 15.1345 28.2577 14.9334 28.1045 14.7898C27.8842 14.56 27.8268 14.5504 26.5724 14.5504H25.2797V14.1674V13.7844H26.5724C27.8268 13.7844 27.8842 13.7748 28.1045 13.545C28.3343 13.3247 28.3439 13.2769 28.3439 11.8692C28.3439 10.4616 28.3343 10.4137 28.1045 10.1935C27.8747 9.9541 27.8555 9.9541 26.0457 9.9541C24.2359 9.9541 24.2168 9.9541 23.987 10.1935Z" fill="#8C8A8A"/>
<path d="M14.0285 16.322L13.7891 16.5519V21.445V26.3382L14.0285 26.568C14.3061 26.8553 14.7371 26.8744 15.0435 26.6254L15.2733 26.4435L15.3212 23.025L15.369 19.5969L16.5947 21.5695C18.395 24.4613 18.3662 24.4613 20.1664 21.5599L21.4017 19.5778L21.4496 23.0154L21.4975 26.4435L21.7273 26.6254C22.0337 26.8744 22.4646 26.8553 22.7423 26.568L22.9817 26.3382V21.445V16.5519L22.7423 16.322C22.5029 16.0731 22.139 16.0156 21.8422 16.1688C21.756 16.2167 20.9516 17.4232 20.0515 18.85C19.161 20.2768 18.4045 21.445 18.3758 21.445C18.3471 21.445 17.6193 20.3151 16.7671 18.9266C15.9053 17.5477 15.1201 16.3412 15.0147 16.2454C14.7371 16.006 14.3061 16.0348 14.0285 16.322Z" fill="#8C8A8A"/>
</svg>
