<svg width="444" height="284" viewBox="0 0 444 284" fill="none" xmlns="http://www.w3.org/2000/svg">
<mask id="mask0_409_3286" style="mask-type:alpha" maskUnits="userSpaceOnUse" x="0" y="0" width="444" height="284">
<rect y="0.447266" width="443.467" height="283.064" fill="#D9D9D9"/>
</mask>
<g mask="url(#mask0_409_3286)">
<path d="M92.7556 284.164H51.6135V199.243H48.4487V109.574H46.3389M92.7556 284.164V99.5521L46.3389 109.574M92.7556 284.164V286.802V289.439L157.106 292.604H164.491M46.3389 109.574L92.7556 93.75V91.1127H90.6458L117.019 57.3551M117.019 57.3551L159.743 89.0029M117.019 57.3551L197.721 70.0142M159.743 89.0029L208.798 78.9811M159.743 89.0029L197.721 70.0142M208.798 78.9811L286.862 50.498M208.798 78.9811V294.186M286.862 50.498L435.079 158.101H432.969V286.274L208.798 294.186M286.862 50.498L197.721 70.0142M208.798 294.186L203.523 293.998M164.491 292.604V95.8599L203.523 89.0029V293.998M164.491 292.604L203.523 293.998M60.0529 199.77L69.5472 199.243V267.599L59.5254 267.813L60.0529 199.77Z" stroke="white" stroke-opacity="0.3"/>
<path d="M121.766 76.3434L105.415 96.387V271.675L149.194 273.087M121.766 76.3434L149.194 97.4419V273.087M121.766 76.3434L118.601 73.7061L100.14 95.8595V271.505L149.194 273.087M132.843 217.176L117.546 218.231V196.605L132.843 195.55M132.843 217.176V195.55M132.843 217.176V218.758L114.909 219.813V193.968L132.843 192.913V195.55M132.843 155.463L117.546 157.573V112.738L132.843 110.628M132.843 155.463V110.628M132.843 155.463V157.045L114.909 159.155V110.101L132.843 107.991V110.628" stroke="white" stroke-opacity="0.3"/>
<path d="M294.775 75.7556L283.698 67.9043L218.82 91.6401V274.67L294.775 272.692M294.775 75.7556V272.692M294.775 75.7556L333.279 103.048M294.775 272.692L333.279 271.689M333.279 103.048L421.366 165.485V269.395L333.279 271.689M333.279 103.048V271.689M356.453 131.397V186.253H343.267V131.397H356.453ZM382.531 149.134V203.99H369.344V149.134H382.531ZM408.707 168.65V220.341H395.52V168.65H408.707Z" stroke="white" stroke-opacity="0.3"/>
<path d="M234.117 160.21V162.32L277.369 164.43V162.32M234.117 160.21L253.105 160.738V122.233L234.117 121.178M234.117 160.21V121.178M277.369 162.32L257.853 161.793V122.76L277.369 123.815M277.369 162.32V123.815M277.369 123.815V119.068M277.369 119.068V81.6182L253.105 90.7909M277.369 119.068L257.853 117.486V88.9962M234.117 121.178V114.848M234.117 114.848V97.9695L253.105 90.7909M234.117 114.848L253.105 116.431V90.7909M234.117 193.968V191.331L278.424 192.385V195.023M234.117 193.968L253.633 194.495V253.571H234.117M234.117 193.968V253.571M234.117 253.571V256.209H278.424V253.571M278.424 253.571H256.798V194.658L278.424 195.023M278.424 253.571V195.023" stroke="white" stroke-opacity="0.3"/>
<path d="M421.366 269.396H425.058V163.903L286.863 66.3223L218.82 91.6405" stroke="white" stroke-opacity="0.3"/>
<path d="M116.895 11.9795L121.391 15.6017L122.28 9.8971L116.895 11.9795ZM197.621 24.5601L193.125 20.9379L192.236 26.6425L197.621 24.5601ZM121.264 13.1665L193.097 24.3612L193.251 23.3731L121.418 12.1784L121.264 13.1665Z" fill="white" fill-opacity="0.2"/>
<path d="M46.1289 70.6896L51.7891 71.8281L49.9449 66.357L46.1289 70.6896ZM92.782 54.9639L87.1219 53.8254L88.966 59.2965L92.782 54.9639ZM50.5529 69.7261L88.6775 56.8751L88.358 55.9275L50.2335 68.7784L50.5529 69.7261Z" fill="white" fill-opacity="0.2"/>
<path d="M9.43555 283.511L12.3223 278.511L6.5488 278.511L9.43555 283.511ZM9.43555 110.527L6.5488 115.527L12.3223 115.527L9.43555 110.527ZM9.93555 279.011L9.93555 115.027L8.93555 115.027L8.93555 279.011L9.93555 279.011Z" fill="white" fill-opacity="0.2"/>
<path d="M198.145 24.5605L202.438 20.7006L203.634 26.3488L198.145 24.5605ZM287.257 5.68962L282.964 9.5496L281.768 3.90135L287.257 5.68962ZM202.443 23.1391L282.751 6.13274L282.958 7.11104L202.65 24.1174L202.443 23.1391Z" fill="white" fill-opacity="0.2"/>
<path d="M435.08 112.101L429.335 111.522L432.708 106.837L435.08 112.101ZM287.257 5.68955L293.002 6.26785L289.629 10.9536L287.257 5.68955ZM431.135 109.877L290.617 8.72438L291.202 7.91279L431.72 109.066L431.135 109.877Z" fill="white" fill-opacity="0.2"/>
<path d="M198.145 66.4958L198.145 28.7539" stroke="white" stroke-opacity="0.2" stroke-dasharray="4 4"/>
<path d="M287.257 48.673V9.88281" stroke="white" stroke-opacity="0.2" stroke-dasharray="4 4"/>
<path d="M117.419 54.9631V16.1729" stroke="white" stroke-opacity="0.2" stroke-dasharray="4 4"/>
<path d="M93.3062 84.3176L93.3062 57.0596" stroke="white" stroke-opacity="0.2" stroke-dasharray="4 4"/>
<path d="M46.1289 106.334L46.1289 72.7861" stroke="white" stroke-opacity="0.2" stroke-dasharray="4 4"/>
<path d="M42.984 108.431L9.03955 108.922" stroke="white" stroke-opacity="0.2" stroke-dasharray="4 4"/>
<path d="M435.08 153.512V114.722" stroke="white" stroke-opacity="0.2" stroke-dasharray="4 4"/>
</g>
</svg>
