<svg width="212" height="63" viewBox="0 0 212 63" fill="none" xmlns="http://www.w3.org/2000/svg">
<path d="M43.7391 44.4671H41.9121V42.3892L43.7391 39.6465V44.4671Z" fill="#494860"/>
<path d="M47.1 44.4656H45.2729V37.4009L47.1 34.6582V44.4656Z" fill="#494860"/>
<path d="M43.7391 46.0459H41.9121V48.1237H43.7391V46.0459Z" fill="#494860"/>
<path d="M47.1 46.0459H45.2729V48.1237H47.1V46.0459Z" fill="#494860"/>
<path d="M54.1526 38.0659L43.1174 28.5078L34.4209 20.8614V28.5078V55.8521H25.2858H5.91951V44.6318L9.71969 38.9801L16.8085 28.5078L22.6549 19.8641V28.5078V49.1199H28.5744V28.5078V0L9.35429 28.5078L5.40795 34.3258L0 42.3878V62.5012H31.4977H40.3404V52.9431V34.492L49.7677 42.7202L57.0758 49.1199V55.8521H46.2599V62.5012H62.9953V45.7954L54.1526 38.0659Z" fill="url(#paint0_linear_409_3695)"/>
<path d="M72.2025 51.9453L74.9795 39.8939C75.7103 36.6525 78.1951 34.9902 82.3607 34.9902H88.3532C88.6456 34.9902 88.8648 35.0733 89.011 35.3227C89.1571 35.572 89.3033 35.8214 89.3033 36.1538V51.9453C89.3033 52.2778 89.2302 52.5271 89.011 52.7765C88.7917 53.0258 88.5725 53.1089 88.2802 53.1089H86.1608C85.8685 53.1089 85.5762 53.0258 85.43 52.7765C85.2108 52.5271 85.1377 52.2778 85.1377 51.9453V48.787H77.245L76.5142 51.9453C76.4411 52.2778 76.295 52.6102 76.0027 52.7765C75.7103 53.0258 75.4911 53.1089 75.1988 53.1089H73.0064C72.714 53.1089 72.4948 53.0258 72.3486 52.8596C72.2025 52.6934 72.1294 52.5271 72.1294 52.3609C72.2025 52.1116 72.2025 52.0285 72.2025 51.9453ZM78.0489 45.1301H85.1377V38.5641H81.9952C81.2644 38.5641 80.6798 38.8134 80.1682 39.229C79.6567 39.7277 79.2913 40.3095 79.072 41.0575L78.0489 45.1301Z" fill="#494860"/>
<path d="M96.9775 51.8622V36.1538C96.9775 35.8214 97.0506 35.572 97.2699 35.3227C97.4891 35.0733 97.7083 34.9902 98.0007 34.9902H106.478C110.936 34.9902 113.201 37.3174 113.201 42.0549C113.201 46.7092 110.936 49.1195 106.478 49.1195H101.216V51.9453C101.216 52.2778 101.143 52.5271 100.924 52.7765C100.705 53.0258 100.485 53.1089 100.193 53.1089H98.0737C97.7814 53.1089 97.5622 53.0258 97.3429 52.7765C97.1237 52.5271 96.9775 52.1947 96.9775 51.8622ZM101.216 45.4625H105.236C106.478 45.4625 107.428 45.2132 108.086 44.7145C108.743 44.2158 109.036 43.3016 109.036 41.9717C109.036 40.6419 108.743 39.7277 108.086 39.229C107.428 38.7303 106.478 38.481 105.236 38.481H101.216V45.4625Z" fill="#494860"/>
<path d="M119.779 51.8621V36.2368C119.779 35.9044 119.852 35.5719 120.072 35.4057C120.291 35.1564 120.51 35.0732 120.802 35.0732H125.333C125.626 35.0732 125.918 35.1564 126.137 35.4057C126.43 35.655 126.576 35.9044 126.649 36.2368L129.937 47.0415L133.226 36.2368C133.299 35.9044 133.518 35.655 133.738 35.4057C134.03 35.1564 134.249 35.0732 134.542 35.0732H139.073C139.365 35.0732 139.584 35.1564 139.803 35.4057C140.023 35.655 140.096 35.9044 140.096 36.2368V51.8621C140.096 52.1946 140.023 52.527 139.803 52.6932C139.584 52.9426 139.365 53.0257 139.073 53.0257H137.099C136.807 53.0257 136.588 52.9426 136.369 52.6932C136.149 52.4439 136.076 52.1946 136.076 51.8621V39.5614L132.13 51.9452C132.057 52.2777 131.838 52.527 131.618 52.7764C131.326 53.0257 131.107 53.1088 130.814 53.1088H129.207C128.914 53.1088 128.622 53.0257 128.403 52.7764C128.184 52.527 127.964 52.2777 127.818 51.9452L123.945 39.5614V51.8621C123.945 52.1946 123.872 52.527 123.653 52.6932C123.433 52.9426 123.214 53.0257 122.922 53.0257H120.949C120.656 53.0257 120.437 52.9426 120.218 52.6932C119.925 52.527 119.779 52.1946 119.779 51.8621Z" fill="#494860"/>
<path d="M146.526 51.9453L149.303 39.8939C150.034 36.6525 152.519 34.9902 156.684 34.9902H162.677C162.969 34.9902 163.189 35.0733 163.335 35.3227C163.481 35.572 163.627 35.8214 163.627 36.1538V51.9453C163.627 52.2778 163.554 52.5271 163.335 52.7765C163.115 53.0258 162.896 53.1089 162.604 53.1089H160.485C160.192 53.1089 159.9 53.0258 159.754 52.7765C159.535 52.5271 159.461 52.2778 159.461 51.9453V48.787H151.569L150.838 51.9453C150.765 52.2778 150.619 52.6102 150.326 52.7765C150.034 53.0258 149.815 53.1089 149.523 53.1089H147.33C147.038 53.1089 146.819 53.0258 146.672 52.8596C146.526 52.6934 146.453 52.5271 146.453 52.3609C146.526 52.1116 146.526 52.0285 146.526 51.9453ZM152.373 45.1301H159.461V38.5641H156.319C155.588 38.5641 155.004 38.8134 154.492 39.229C153.98 39.7277 153.615 40.3095 153.396 41.0575L152.373 45.1301Z" fill="#494860"/>
<path d="M169.766 51.8633V50.6166C169.766 50.2842 169.839 50.0348 170.058 49.7855C170.278 49.5361 170.497 49.453 170.789 49.453H171.666L173.712 39.895C174.443 36.5705 176.855 34.9082 180.947 34.9082H186.94C187.232 34.9082 187.452 34.9913 187.671 35.2407C187.89 35.49 187.963 35.7393 187.963 36.0718V51.8633C187.963 52.1958 187.89 52.4451 187.671 52.6944C187.452 52.9438 187.232 53.0269 186.94 53.0269H170.789C170.497 53.0269 170.278 52.9438 170.058 52.6944C169.839 52.5282 169.766 52.1958 169.766 51.8633ZM175.905 49.5361H183.798V38.5652H180.509C179.778 38.5652 179.193 38.8145 178.755 39.2301C178.317 39.6457 177.951 40.3106 177.805 41.0586L175.905 49.5361Z" fill="#494860"/>
<path d="M194.394 51.9453L197.171 39.8939C197.902 36.6525 200.387 34.9902 204.553 34.9902H210.545C210.837 34.9902 211.057 35.0733 211.203 35.3227C211.349 35.572 211.495 35.8214 211.495 36.1538V51.9453C211.495 52.2778 211.422 52.5271 211.203 52.7765C210.984 53.0258 210.764 53.1089 210.472 53.1089H208.353C208.06 53.1089 207.768 53.0258 207.622 52.7765C207.403 52.5271 207.33 52.2778 207.33 51.9453V48.787H199.437L198.706 51.9453C198.633 52.2778 198.487 52.6102 198.195 52.7765C197.902 53.0258 197.683 53.1089 197.391 53.1089H195.198C194.906 53.1089 194.687 53.0258 194.541 52.8596C194.394 52.6934 194.321 52.5271 194.321 52.3609C194.321 52.1116 194.394 52.0285 194.394 51.9453ZM200.241 45.1301H207.33V38.5641H204.187C203.456 38.5641 202.872 38.8134 202.36 39.229C201.849 39.7277 201.483 40.3095 201.264 41.0575L200.241 45.1301Z" fill="#494860"/>
<path d="M75.3461 58.8447V62.3355H75.1268V59.0941H73.0806V62.3355H72.8613V58.8447H75.3461Z" fill="#999998"/>
<path d="M76.9541 58.8447H77.8311C78.1965 58.8447 78.4157 58.9278 78.5619 59.0941C78.708 59.2603 78.7811 59.5096 78.7811 59.759C78.7811 59.8421 78.7811 59.9252 78.7811 60.0083C78.7811 60.0914 78.708 60.1745 78.708 60.2577C78.635 60.3408 78.5619 60.4239 78.4888 60.507C78.4157 60.5901 78.3426 60.5901 78.1965 60.6732C78.0503 60.6732 77.9041 60.7563 77.758 60.7563H77.1733V62.4186H76.9541V58.8447ZM77.1733 59.011V60.4239H77.758C78.0503 60.4239 78.1965 60.3408 78.3426 60.2577C78.4888 60.0914 78.5619 59.9252 78.5619 59.759C78.5619 59.5927 78.4888 59.3434 78.3426 59.2603C78.1965 59.0941 78.0503 59.0941 77.758 59.0941H77.1733V59.011Z" fill="#999998"/>
<path d="M83.2396 60.5892C83.2396 60.8386 83.1665 61.0879 83.0935 61.2541C83.0204 61.5035 82.8742 61.6697 82.7281 61.8359C82.5819 62.0022 82.4357 62.0853 82.2165 62.2515C81.9973 62.3346 81.778 62.4177 81.5588 62.4177C81.3395 62.4177 81.1203 62.3346 80.9011 62.2515C80.6818 62.1684 80.5357 62.0022 80.3895 61.8359C80.2433 61.6697 80.0972 61.5035 80.0241 61.2541C79.951 61.0048 79.8779 60.8386 79.8779 60.5892C79.8779 60.3399 79.951 60.0905 80.0241 59.9243C80.0972 59.675 80.2433 59.5088 80.3895 59.3425C80.5357 59.1763 80.6818 59.0932 80.9011 58.927C81.1203 58.8439 81.3395 58.7607 81.5588 58.7607C81.8511 58.7607 82.1434 58.8439 82.3627 59.0101C82.5819 59.1763 82.8011 59.3425 82.9473 59.675C83.1665 59.9243 83.2396 60.2568 83.2396 60.5892ZM82.8011 61.3372C82.9473 61.0879 82.9473 60.8386 82.9473 60.5892C82.9473 60.3399 82.8742 60.0074 82.8011 59.8412C82.655 59.5919 82.5088 59.4256 82.2896 59.2594C82.0703 59.0932 81.8511 59.0932 81.6319 59.0932C81.4126 59.0932 81.2665 59.0932 81.1203 59.1763C80.9741 59.2594 80.828 59.3425 80.6818 59.5088C80.5357 59.675 80.4626 59.8412 80.3895 60.0074C80.3164 60.1737 80.3164 60.423 80.3164 60.5892C80.3164 60.8386 80.3895 61.171 80.4626 61.3372C80.5357 61.5035 80.7549 61.7528 80.9741 61.919C81.1934 62.0853 81.4126 62.0853 81.6319 62.0853C81.8511 62.0853 82.1434 62.0022 82.2896 61.919C82.5088 61.7528 82.655 61.5866 82.8011 61.3372Z" fill="#999998"/>
<path d="M87.1854 58.8447V62.3355H86.9662V59.3434L84.8468 62.3355H84.7007V58.8447H84.9199V61.8368L87.0393 58.8447H87.1854Z" fill="#999998"/>
<path d="M88.646 59.2594V59.0101C88.7191 58.927 88.8652 58.8439 89.0845 58.8439C89.2306 58.8439 89.4499 58.7607 89.596 58.7607C89.7422 58.7607 89.9614 58.7607 90.1076 58.8439C90.2538 58.927 90.3999 59.0101 90.473 59.0932C90.5461 59.2594 90.6192 59.3425 90.6192 59.5919C90.6192 59.7581 90.5461 59.9243 90.473 60.0905C90.3999 60.2568 90.2538 60.3399 90.1076 60.423C90.1807 60.423 90.2538 60.5061 90.3268 60.5061C90.3999 60.5892 90.473 60.5892 90.473 60.6723C90.5461 60.7555 90.5461 60.8386 90.6192 60.9217C90.6192 61.0048 90.6922 61.171 90.6922 61.2541C90.6922 61.4204 90.6922 61.5035 90.6192 61.6697C90.5461 61.7528 90.5461 61.919 90.473 61.919C90.3999 62.0022 90.3268 62.0853 90.1807 62.0853C90.1076 62.1684 89.9614 62.1684 89.8884 62.1684C89.8153 62.1684 89.6691 62.1684 89.596 62.1684C89.3037 62.1684 89.0114 62.0853 88.7191 62.0022V61.7528C88.7922 61.8359 88.9383 61.8359 89.0845 61.919C89.2306 61.919 89.3768 62.0022 89.523 62.0022C89.596 62.0022 89.6691 62.0022 89.7422 62.0022C89.8153 62.0022 89.8884 61.919 89.9614 61.919C90.0345 61.919 90.1076 61.8359 90.1807 61.7528C90.2538 61.6697 90.2538 61.5866 90.3268 61.5035C90.3268 61.4204 90.3999 61.3373 90.3999 61.2541C90.3999 61.0048 90.3268 60.8386 90.1807 60.6723C90.0345 60.5061 89.8153 60.5061 89.596 60.5061H89.0845V60.2568H89.523C89.7422 60.2568 89.8884 60.1737 90.0345 60.0074C90.1807 59.8412 90.2538 59.675 90.2538 59.5088C90.2538 59.2594 90.1807 59.0932 90.0345 59.0101C89.8884 58.927 89.7422 58.8439 89.4499 58.8439C89.3037 58.8439 89.1576 58.8439 89.0114 58.927C88.8652 59.0101 88.7922 59.1763 88.646 59.2594Z" fill="#999998"/>
<path d="M91.9349 58.8447H92.5926C92.7388 58.8447 92.8849 58.8447 93.0311 58.9278C93.1773 58.9278 93.2503 59.0109 93.3234 59.0941C93.3965 59.1772 93.4696 59.2603 93.4696 59.3434C93.5427 59.4265 93.5427 59.5096 93.5427 59.5927C93.5427 59.6759 93.5427 59.759 93.5427 59.8421C93.5427 60.0083 93.5427 60.1745 93.4696 60.2577C93.3965 60.3408 93.3234 60.507 93.1042 60.5901C93.3234 60.6732 93.5427 60.7563 93.6157 60.9226C93.7619 61.0888 93.7619 61.255 93.7619 61.5044C93.7619 61.7537 93.6888 62.003 93.4696 62.1693C93.2503 62.3355 93.0311 62.4186 92.7388 62.4186H91.8618V58.8447H91.9349ZM92.2272 59.011V60.4239H92.5195C93.1042 60.4239 93.3234 60.1745 93.3234 59.759C93.3234 59.2603 93.0311 59.0941 92.4465 59.0941H92.2272V59.011ZM92.2272 60.6732V62.0861H92.8849C93.0311 62.0861 93.1042 62.0861 93.1773 62.003C93.2503 62.003 93.3234 61.9199 93.3965 61.9199C93.4696 61.8368 93.4696 61.8368 93.5427 61.7537C93.6157 61.6706 93.6157 61.5875 93.6157 61.5875C93.6157 61.5043 93.6157 61.4212 93.6157 61.4212C93.6157 61.3381 93.6157 61.255 93.6157 61.255C93.6157 61.1719 93.5427 61.0888 93.5427 61.0888C93.4696 61.0057 93.4696 61.0057 93.3965 60.9226C93.3234 60.8394 93.2503 60.8394 93.1042 60.8394C93.0311 60.8394 92.8849 60.7563 92.7388 60.7563H92.2272V60.6732Z" fill="#999998"/>
<path d="M98.3661 60.5892C98.3661 60.8386 98.293 61.0879 98.2199 61.2541C98.1469 61.5035 98.0007 61.6697 97.8545 61.8359C97.7084 62.0022 97.5622 62.0853 97.343 62.2515C97.1237 62.3346 96.9045 62.4177 96.6852 62.4177C96.466 62.4177 96.2468 62.3346 96.0275 62.2515C95.8083 62.1684 95.6621 62.0022 95.516 61.8359C95.3698 61.6697 95.2236 61.5035 95.1506 61.2541C95.0775 61.0048 95.0044 60.8386 95.0044 60.5892C95.0044 60.3399 95.0775 60.0905 95.1506 59.9243C95.2236 59.675 95.3698 59.5088 95.516 59.3425C95.6621 59.1763 95.8083 59.0932 96.0275 58.927C96.2468 58.8439 96.466 58.7607 96.6852 58.7607C96.9776 58.7607 97.2699 58.8439 97.4891 59.0101C97.7084 59.1763 97.9276 59.3425 98.0738 59.675C98.293 59.9243 98.3661 60.2568 98.3661 60.5892ZM97.9276 61.3372C98.0738 61.0879 98.0738 60.8386 98.0738 60.5892C98.0738 60.3399 98.0007 60.0074 97.9276 59.8412C97.7814 59.5919 97.6353 59.4256 97.416 59.2594C97.1968 59.0932 96.9776 59.0932 96.7583 59.0932C96.5391 59.0932 96.3929 59.0932 96.2468 59.1763C96.1006 59.2594 95.9544 59.3425 95.8083 59.5088C95.6621 59.675 95.589 59.8412 95.516 60.0074C95.4429 60.1737 95.4429 60.423 95.4429 60.5892C95.4429 60.8386 95.516 61.171 95.589 61.3372C95.7352 61.5866 95.8814 61.7528 96.1006 61.919C96.3198 62.0853 96.5391 62.0853 96.7583 62.0853C96.9776 62.0853 97.2699 62.0022 97.416 61.919C97.6353 61.7528 97.7814 61.5866 97.9276 61.3372Z" fill="#999998"/>
<path d="M101.216 58.7607L102.458 62.0022H102.824V62.9995H102.605V62.2515H99.7544V62.9995H99.5352V62.0022H99.9006L101.143 58.7607H101.216ZM101.143 59.2594L100.12 62.0853H102.239L101.143 59.2594Z" fill="#999998"/>
<path d="M106.697 59.0932V59.4257C106.332 59.1763 105.966 59.0932 105.601 59.0932C105.382 59.0932 105.09 59.1763 104.943 59.2594C104.724 59.4256 104.578 59.5919 104.432 59.8412C104.286 60.0906 104.286 60.3399 104.286 60.5892C104.286 60.9217 104.359 61.171 104.432 61.4204C104.578 61.6697 104.724 61.8359 104.943 62.0022C105.163 62.1684 105.382 62.1684 105.674 62.1684C105.82 62.1684 106.04 62.1684 106.186 62.0853C106.332 62.0022 106.551 61.919 106.77 61.8359V62.0853C106.405 62.3346 106.04 62.4177 105.674 62.4177C105.382 62.4177 105.09 62.3346 104.87 62.1684C104.651 62.0022 104.432 61.8359 104.286 61.5035C104.139 61.2541 104.066 60.9217 104.066 60.5892C104.066 60.3399 104.139 60.0906 104.213 59.8412C104.286 59.5919 104.432 59.4256 104.578 59.2594C104.724 59.0932 104.87 59.0101 105.09 58.927C105.309 58.8439 105.455 58.7607 105.674 58.7607C105.966 58.7607 106.259 58.8439 106.697 59.0932Z" fill="#999998"/>
<path d="M110.279 58.8447V59.0941H109.109V62.3355H108.89V59.0941H107.721V58.8447H110.279Z" fill="#999998"/>
<path d="M111.521 58.8447H112.179C112.325 58.8447 112.471 58.8447 112.617 58.9278C112.763 58.9278 112.836 59.0109 112.909 59.0941C112.982 59.1772 113.056 59.2603 113.056 59.3434C113.129 59.4265 113.129 59.5096 113.129 59.5927C113.129 59.6759 113.129 59.759 113.129 59.8421C113.129 60.0083 113.129 60.1745 113.056 60.2577C112.982 60.3408 112.909 60.507 112.69 60.5901C112.909 60.6732 113.129 60.7563 113.202 60.9226C113.275 61.0888 113.348 61.255 113.348 61.5044C113.348 61.7537 113.275 62.003 113.056 62.1693C112.836 62.3355 112.617 62.4186 112.325 62.4186H111.448V58.8447H111.521ZM111.74 59.011V60.4239H112.032C112.617 60.4239 112.836 60.1745 112.836 59.759C112.836 59.2603 112.544 59.0941 111.959 59.0941H111.74V59.011ZM111.74 60.6732V62.0861H112.398C112.544 62.0861 112.617 62.0861 112.69 62.003C112.763 62.003 112.836 61.9199 112.909 61.9199C112.982 61.8368 112.982 61.8368 113.056 61.7537C113.129 61.6706 113.129 61.5875 113.129 61.5875C113.129 61.5043 113.129 61.4212 113.129 61.4212C113.129 61.3381 113.129 61.255 113.129 61.255C113.129 61.1719 113.056 61.0888 113.056 61.0888C112.982 61.0057 112.982 61.0057 112.909 60.9226C112.836 60.8394 112.763 60.8394 112.617 60.8394C112.471 60.8394 112.398 60.7563 112.252 60.7563H111.74V60.6732Z" fill="#999998"/>
<path d="M116.491 58.8447V59.0941H115.029V60.507H116.418V60.7563H115.029V62.1693H116.491V62.4186H114.81V58.9278H116.491V58.8447Z" fill="#999998"/>
<path d="M120.436 58.8447V62.3355H120.217V60.6732H118.171V62.3355H117.952V58.8447H118.171V60.4239H120.217V58.8447H120.436Z" fill="#999998"/>
<path d="M124.529 58.8447V62.3355H124.31V60.6732H122.264V62.3355H122.044V58.8447H122.264V60.4239H124.31V58.8447H124.529Z" fill="#999998"/>
<path d="M129.206 60.5892C129.206 60.8386 129.133 61.0879 129.06 61.2541C128.987 61.5035 128.841 61.6697 128.694 61.8359C128.548 62.0022 128.402 62.0853 128.183 62.2515C127.964 62.3346 127.744 62.4177 127.525 62.4177C127.306 62.4177 127.087 62.3346 126.867 62.2515C126.648 62.1684 126.502 62.0022 126.356 61.8359C126.21 61.6697 126.063 61.5035 125.99 61.2541C125.917 61.0048 125.844 60.8386 125.844 60.5892C125.844 60.3399 125.917 60.0905 125.99 59.9243C126.063 59.675 126.21 59.5088 126.356 59.3425C126.502 59.1763 126.648 59.0932 126.867 58.927C127.087 58.8439 127.306 58.7607 127.525 58.7607C127.817 58.7607 128.11 58.8439 128.329 59.0101C128.548 59.1763 128.767 59.3425 128.914 59.675C129.206 59.9243 129.206 60.2568 129.206 60.5892ZM128.841 61.3372C128.987 61.0879 128.987 60.8386 128.987 60.5892C128.987 60.3399 128.914 60.0074 128.841 59.8412C128.694 59.5919 128.548 59.4256 128.329 59.2594C128.11 59.0932 127.89 59.0932 127.671 59.0932C127.452 59.0932 127.306 59.0932 127.16 59.1763C127.014 59.2594 126.867 59.3425 126.721 59.5088C126.575 59.675 126.502 59.8412 126.429 60.0074C126.356 60.1737 126.356 60.423 126.356 60.5892C126.356 60.8386 126.429 61.171 126.502 61.3372C126.648 61.5866 126.794 61.7528 127.014 61.919C127.233 62.0853 127.452 62.0853 127.671 62.0853C127.89 62.0853 128.183 62.0022 128.329 61.919C128.548 61.7528 128.694 61.5866 128.841 61.3372Z" fill="#999998"/>
<path d="M131.618 61.0059V61.2552H130.521V61.0059H131.618Z" fill="#999998"/>
<path d="M135.564 59.0932V59.4257C135.199 59.1763 134.833 59.0932 134.468 59.0932C134.249 59.0932 133.956 59.1763 133.81 59.2594C133.591 59.4256 133.445 59.5919 133.299 59.8412C133.152 60.0906 133.152 60.3399 133.152 60.5892C133.152 60.9217 133.225 61.171 133.299 61.4204C133.445 61.6697 133.591 61.8359 133.81 62.0022C134.029 62.1684 134.249 62.1684 134.541 62.1684C134.687 62.1684 134.906 62.1684 135.052 62.0853C135.199 62.0022 135.418 61.919 135.637 61.8359V62.0853C135.272 62.3346 134.906 62.4177 134.541 62.4177C134.249 62.4177 133.956 62.3346 133.737 62.1684C133.518 62.0022 133.299 61.8359 133.152 61.5035C133.006 61.2541 132.933 60.9217 132.933 60.5892C132.933 60.3399 133.006 60.0906 133.079 59.8412C133.152 59.5919 133.299 59.4256 133.445 59.2594C133.591 59.0932 133.737 59.0101 133.956 58.927C134.175 58.8439 134.322 58.7607 134.541 58.7607C134.833 58.7607 135.199 58.8439 135.564 59.0932Z" fill="#999998"/>
<path d="M139.145 58.8447V59.0941H137.976V62.3355H137.757V59.0941H136.587V58.8447H139.145Z" fill="#999998"/>
<path d="M140.388 58.8447H141.265C141.63 58.8447 141.849 58.9278 141.995 59.0941C142.142 59.2603 142.215 59.5096 142.215 59.759C142.215 59.8421 142.215 59.9252 142.215 60.0083C142.215 60.0914 142.142 60.1745 142.142 60.2577C142.069 60.3408 141.995 60.4239 141.922 60.507C141.849 60.5901 141.776 60.5901 141.63 60.6732C141.484 60.6732 141.338 60.7563 141.192 60.7563H140.68V62.4186H140.461V58.8447H140.388ZM140.68 59.011V60.4239H141.265C141.557 60.4239 141.703 60.3408 141.849 60.2577C141.995 60.0914 142.069 59.9252 142.069 59.759C142.069 59.5927 141.995 59.3434 141.849 59.2603C141.703 59.0941 141.557 59.0941 141.265 59.0941H140.68V59.011Z" fill="#999998"/>
<path d="M146.745 60.5892C146.745 60.8386 146.672 61.0879 146.599 61.2541C146.526 61.5035 146.38 61.6697 146.233 61.8359C146.087 62.0022 145.941 62.0853 145.722 62.2515C145.503 62.3346 145.283 62.4177 145.064 62.4177C144.845 62.4177 144.626 62.3346 144.406 62.2515C144.187 62.1684 144.041 62.0022 143.895 61.8359C143.749 61.6697 143.603 61.5035 143.529 61.2541C143.456 61.0048 143.383 60.8386 143.383 60.5892C143.383 60.3399 143.456 60.0905 143.529 59.9243C143.603 59.675 143.749 59.5088 143.895 59.3425C144.041 59.1763 144.187 59.0932 144.406 58.927C144.626 58.8439 144.845 58.7607 145.064 58.7607C145.356 58.7607 145.649 58.8439 145.868 59.0101C146.087 59.1763 146.307 59.3425 146.453 59.675C146.672 59.9243 146.745 60.2568 146.745 60.5892ZM146.307 61.3372C146.453 61.0879 146.453 60.8386 146.453 60.5892C146.453 60.3399 146.38 60.0074 146.307 59.8412C146.16 59.5919 146.014 59.4256 145.795 59.2594C145.576 59.0932 145.356 59.0932 145.137 59.0932C144.918 59.0932 144.772 59.0932 144.626 59.1763C144.48 59.2594 144.333 59.3425 144.187 59.5088C144.041 59.675 143.968 59.8412 143.895 60.0074C143.822 60.1737 143.822 60.423 143.822 60.5892C143.822 60.8386 143.895 61.171 143.968 61.3372C144.114 61.5866 144.26 61.7528 144.48 61.919C144.699 62.0853 144.918 62.0853 145.137 62.0853C145.356 62.0853 145.649 62.0022 145.795 61.919C146.014 61.7528 146.16 61.5866 146.307 61.3372Z" fill="#999998"/>
<path d="M150.693 58.8447V62.3355H150.473V59.3434L148.354 62.3355H148.208V58.8447H148.427V61.8368L150.547 58.8447H150.693Z" fill="#999998"/>
<path d="M154.492 58.8447V59.0941H153.323V62.3355H153.103V59.0941H151.934V58.8447H154.492Z" fill="#999998"/>
<path d="M157.415 58.8447V59.0941H155.954V60.507H157.342V60.7563H156.027V62.1693H157.488V62.4186H155.808V58.9278H157.415V58.8447Z" fill="#999998"/>
<path d="M160.046 58.7607L161.435 62.2515H161.216L159.973 59.1763L158.731 62.2515H158.512L159.9 58.7607H160.046Z" fill="#999998"/>
<path d="M162.75 62.3355V58.8447H162.969V60.3408H163.627C163.992 60.3408 164.212 60.4239 164.431 60.5901C164.577 60.7563 164.723 61.0057 164.723 61.255C164.723 61.5875 164.65 61.7537 164.431 62.003C164.212 62.1693 163.992 62.2524 163.627 62.2524H162.75V62.3355ZM162.969 60.5901V62.0861H163.627C163.773 62.0861 163.846 62.0861 163.992 62.003C164.065 62.003 164.139 61.9199 164.212 61.9199C164.285 61.8368 164.358 61.8368 164.358 61.7537C164.358 61.6706 164.431 61.5875 164.431 61.5875C164.431 61.5043 164.431 61.4212 164.431 61.3381C164.431 61.255 164.431 61.1719 164.431 61.0888C164.431 61.0057 164.358 60.9226 164.358 60.9226C164.285 60.8394 164.285 60.8394 164.212 60.7563C164.139 60.6732 164.065 60.6732 163.992 60.6732C163.919 60.6732 163.773 60.5901 163.627 60.5901H162.969Z" fill="#999998"/>
<path d="M168.597 58.8447V62.3355H168.377V60.6732H166.331V62.3355H166.112V58.8447H166.331V60.4239H168.377V58.8447H168.597Z" fill="#999998"/>
<path d="M171.373 58.7607L172.762 62.2515H172.542L172.031 61.0879H170.569L170.058 62.2515H169.838L171.227 58.7607H171.373ZM171.958 60.8386L171.3 59.1763L170.642 60.8386H171.958Z" fill="#999998"/>
<path d="M176.052 62.3347H175.833V60.8387H175.467C175.394 60.8387 175.321 60.8387 175.248 60.8387C175.175 60.8387 175.175 60.8387 175.102 60.8387C175.029 60.8387 174.956 60.9218 174.956 60.9218C174.883 60.9218 174.883 61.0049 174.809 61.088C174.736 61.1711 174.663 61.2542 174.663 61.3374L174.152 62.2516H173.859L174.517 61.088C174.663 60.8387 174.809 60.6725 174.956 60.5893C174.809 60.5893 174.736 60.5062 174.59 60.4231C174.517 60.34 174.444 60.2569 174.371 60.0907C174.298 59.9244 174.298 59.8413 174.298 59.6751C174.298 59.592 174.298 59.4258 174.371 59.3426C174.444 59.2595 174.444 59.0933 174.59 59.0102C174.736 58.9271 174.809 58.844 174.956 58.7609C175.102 58.6777 175.248 58.6777 175.467 58.6777H176.271V62.3347H176.052ZM175.833 60.5062V59.0102H175.321C175.029 59.0102 174.809 59.0933 174.663 59.2595C174.517 59.4258 174.444 59.592 174.444 59.7582C174.444 60.0075 174.517 60.1738 174.663 60.2569C174.809 60.4231 174.956 60.4231 175.248 60.4231H175.833V60.5062Z" fill="#999998"/>
<path d="M179.998 58.8447V60.4239H180.29C180.436 60.4239 180.582 60.4239 180.655 60.3408C180.729 60.2576 180.802 60.1745 180.875 59.9252L181.167 59.2603C181.24 59.0941 181.313 59.011 181.386 58.9278C181.459 58.8447 181.532 58.8447 181.679 58.8447H181.752V59.0941H181.605C181.532 59.0941 181.459 59.0941 181.386 59.1772C181.313 59.1772 181.313 59.2603 181.24 59.4265L181.021 60.0083C180.948 60.1745 180.875 60.2576 180.802 60.3408C180.729 60.4239 180.655 60.507 180.582 60.5901C180.655 60.5901 180.802 60.6732 180.875 60.7563C180.948 60.8394 181.094 61.0057 181.167 61.255L181.752 62.3355H181.459L180.948 61.3381C180.802 61.0888 180.729 60.9226 180.582 60.8394C180.436 60.7563 180.363 60.6732 180.217 60.6732H179.852V62.3355H179.632V58.8447H179.998Z" fill="#999998"/>
<path d="M186.428 60.5892C186.428 60.8386 186.355 61.0879 186.282 61.2541C186.209 61.5035 186.063 61.6697 185.917 61.8359C185.77 62.0022 185.624 62.0853 185.405 62.2515C185.186 62.3346 184.966 62.4177 184.747 62.4177C184.528 62.4177 184.309 62.3346 184.09 62.2515C183.87 62.1684 183.724 62.0022 183.578 61.8359C183.432 61.6697 183.286 61.5035 183.213 61.2541C183.139 61.0048 183.066 60.8386 183.066 60.5892C183.066 60.3399 183.139 60.0905 183.213 59.9243C183.286 59.675 183.432 59.5088 183.578 59.3425C183.724 59.1763 183.87 59.0932 184.09 58.927C184.309 58.8439 184.528 58.7607 184.747 58.7607C185.04 58.7607 185.332 58.8439 185.551 59.0101C185.77 59.1763 185.99 59.3425 186.136 59.675C186.355 59.9243 186.428 60.2568 186.428 60.5892ZM185.99 61.3372C186.136 61.0879 186.136 60.8386 186.136 60.5892C186.136 60.3399 186.063 60.0074 185.99 59.8412C185.843 59.5919 185.697 59.4256 185.478 59.2594C185.259 59.0932 185.04 59.0932 184.82 59.0932C184.601 59.0932 184.455 59.0932 184.309 59.1763C184.163 59.2594 184.016 59.3425 183.87 59.5088C183.724 59.675 183.651 59.8412 183.578 60.0074C183.505 60.1737 183.505 60.423 183.505 60.5892C183.505 60.8386 183.578 61.171 183.651 61.3372C183.797 61.5866 183.943 61.7528 184.163 61.919C184.382 62.0853 184.601 62.0853 184.82 62.0853C185.04 62.0853 185.332 62.0022 185.478 61.919C185.697 61.7528 185.843 61.5866 185.99 61.3372Z" fill="#999998"/>
<path d="M189.278 60.4239L190.447 58.8447H190.667V62.3355H190.447V59.2603L189.278 60.9226L188.109 59.2603V62.3355H187.89V58.8447H188.109L189.278 60.4239Z" fill="#999998"/>
<path d="M194.832 58.8447V62.3355H194.613V59.0941H192.566V62.3355H192.347V58.8447H194.832Z" fill="#999998"/>
<path d="M197.609 58.7607L198.998 62.2515H198.779L198.267 61.0879H196.806L196.294 62.2515H196.075L197.463 58.7607H197.609ZM198.194 60.8386L197.536 59.1763L196.879 60.8386H198.194Z" fill="#999998"/>
<path d="M202.798 58.8447V62.3355H202.578V60.6732H200.532V62.3355H200.313V58.8447H200.532V60.4239H202.578V58.8447H202.798Z" fill="#999998"/>
<path d="M206.964 58.8447V62.3355H206.744V59.3434L204.625 62.3355H204.479V58.8447H204.698V61.8368L206.818 58.8447H206.964Z" fill="#999998"/>
<path d="M210.545 62.3347H210.326V60.8387H209.96C209.887 60.8387 209.814 60.8387 209.741 60.8387C209.668 60.8387 209.668 60.8387 209.595 60.8387C209.522 60.8387 209.449 60.9218 209.449 60.9218C209.376 60.9218 209.376 61.0049 209.303 61.088C209.229 61.1711 209.156 61.2542 209.156 61.3374L208.645 62.2516H208.353L209.01 61.088C209.156 60.8387 209.303 60.6725 209.449 60.5893C209.303 60.5893 209.23 60.5062 209.083 60.4231C209.01 60.34 208.937 60.2569 208.864 60.0907C208.791 59.9244 208.791 59.8413 208.791 59.6751C208.791 59.592 208.791 59.4258 208.864 59.3426C208.937 59.2595 208.937 59.0933 209.083 59.0102C209.23 58.9271 209.303 58.844 209.449 58.7609C209.595 58.6777 209.741 58.6777 209.96 58.6777H210.764V62.3347H210.545ZM210.253 60.5062V59.0102H209.741C209.449 59.0102 209.23 59.0933 209.083 59.2595C208.937 59.4258 208.864 59.592 208.864 59.7582C208.864 60.0075 208.937 60.1738 209.083 60.2569C209.23 60.4231 209.376 60.4231 209.668 60.4231H210.253V60.5062Z" fill="#999998"/>
<defs>
<linearGradient id="paint0_linear_409_3695" x1="31.492" y1="4.95471" x2="31.492" y2="76.3106" gradientUnits="userSpaceOnUse">
<stop offset="0.2922" stop-color="#EDC744"/>
<stop offset="1" stop-color="#B0942A"/>
</linearGradient>
</defs>
</svg>
