<svg width="140" height="170" viewBox="0 0 140 170" fill="none" xmlns="http://www.w3.org/2000/svg">
<path d="M110 169.5C106.065 169.5 102.246 167.241 98.7065 163C95.1695 158.761 91.9619 152.598 89.2583 144.938C83.8527 129.622 80.5 108.431 80.5 85C80.5 61.5692 83.8528 40.378 89.2583 25.0623C91.9619 17.4022 95.1696 11.2388 98.7065 7.00006C102.246 2.75852 106.065 0.499999 110 0.499999C113.935 0.499999 117.754 2.75852 121.293 7.00006C124.83 11.2388 128.038 17.4022 130.742 25.0623C136.147 40.378 139.5 61.5692 139.5 85C139.5 108.431 136.147 129.622 130.742 144.938C128.038 152.598 124.83 158.761 121.293 163C117.754 167.241 113.935 169.5 110 169.5Z" stroke="#999998"/>
<path d="M70 169.5C66.0646 169.5 62.2459 167.241 58.7065 163C55.1695 158.761 51.9619 152.598 49.2583 144.938C43.8527 129.622 40.5 108.431 40.5 85C40.5 61.5692 43.8528 40.378 49.2583 25.0623C51.9619 17.4022 55.1696 11.2388 58.7065 7.00006C62.2459 2.75852 66.0646 0.499999 70 0.499999C73.9354 0.499999 77.7541 2.75852 81.2935 7.00006C84.8304 11.2388 88.0381 17.4022 90.7417 25.0623C96.1472 40.378 99.5 61.5692 99.5 85C99.5 108.431 96.1472 129.622 90.7417 144.938C88.0381 152.598 84.8304 158.761 81.2934 163C77.7541 167.241 73.9354 169.5 70 169.5Z" stroke="#999998"/>
<path d="M30 169.5C26.0646 169.5 22.2459 167.241 18.7065 163C15.1695 158.761 11.9619 152.598 9.25829 144.938C3.85275 129.622 0.499995 108.431 0.499996 85C0.499997 61.5692 3.85275 40.378 9.25829 25.0623C11.9619 17.4022 15.1696 11.2388 18.7065 7.00006C22.2459 2.75852 26.0646 0.499999 30 0.499999C33.9354 0.499999 37.7541 2.75852 41.2935 7.00006C44.8304 11.2388 48.0381 17.4022 50.7417 25.0623C56.1472 40.378 59.5 61.5692 59.5 85C59.5 108.431 56.1472 129.622 50.7417 144.938C48.0381 152.598 44.8304 158.761 41.2934 163C37.7541 167.241 33.9354 169.5 30 169.5Z" stroke="#999998"/>
</svg>
