<svg width="81" height="80" viewBox="0 0 81 80" fill="none" xmlns="http://www.w3.org/2000/svg">
<path d="M66.3332 25.8333H51.3332C50.4491 25.8333 49.6013 25.4821 48.9762 24.857C48.351 24.2319 47.9998 23.3841 47.9998 22.5V7.5M66.3332 25.8333V69.1667C66.3332 70.0507 65.982 70.8986 65.3569 71.5237C64.7317 72.1488 63.8839 72.5 62.9998 72.5H17.9998C17.1158 72.5 16.2679 72.1488 15.6428 71.5237C15.0177 70.8986 14.6665 70.0507 14.6665 69.1667V10.8333C14.6665 9.94928 15.0177 9.10143 15.6428 8.47631C16.2679 7.85119 17.1158 7.5 17.9998 7.5H47.9998M66.3332 25.8333L47.9998 7.5" stroke="#EEB116" stroke-linecap="round" stroke-linejoin="round"/>
<path d="M57.8852 40.8917H50.3986V55.8334M50.3986 48.3617H55.2836M23.1169 55.805V40.8617H28.1452C29.4753 40.8613 30.7511 41.3892 31.6919 42.3294C32.6327 43.2696 33.1615 44.545 33.1619 45.875C33.1623 47.2051 32.6344 48.4809 31.6942 49.4217C30.754 50.3625 29.4786 50.8913 28.1486 50.8917H23.1152M36.7569 55.8334V40.8334H39.3002C41.2894 40.8334 43.197 41.6236 44.6035 43.0301C46.0101 44.4366 46.8002 46.3443 46.8002 48.3334C46.8002 50.3225 46.0101 52.2302 44.6035 53.6367C43.197 55.0432 41.2894 55.8334 39.3002 55.8334H36.7569Z" stroke="#EEB116" stroke-linecap="round" stroke-linejoin="round"/>
</svg>
