<svg width="351" height="218" viewBox="0 0 351 218" fill="none" xmlns="http://www.w3.org/2000/svg">
<path d="M18.0463 49.1983L96.1003 15.281M18.0463 49.1983V183.975M18.0463 49.1983L1 50.9835M96.1003 217L18.0463 203.612V183.975M96.1003 217L169.22 213.876M96.1003 217V190.223M169.22 213.876L188.958 217H189.855M169.22 213.876L168.323 188.884M232.919 215.661L229.33 214.769L193.443 217H192.546M232.919 215.661H235.611L230.676 209.413M232.919 215.661L227.93 208.967M230.676 209.413L337.44 204.504V183.975M230.676 209.413L214.284 187.545M337.44 183.975L286.301 185.76M337.44 183.975L332.505 183.717M286.301 185.76L214.284 187.545M286.301 185.76V181.298M195.686 25.5455L286.301 38.9339V42.0579M195.686 25.5455L188.06 28.6694M195.686 25.5455L196.045 90.2562M188.06 28.6694L96.1003 15.281M188.06 28.6694V85.7934M96.1003 15.281V94.719M18.0463 183.975L96.1003 190.223M96.1003 190.223V161.661M96.1003 190.223L97.8946 190.19M168.323 188.884V183.975M168.323 188.884L165.631 188.934M168.323 183.975L189.855 217M168.323 183.975H169.668M175.5 190.669L213.63 189.777M175.5 190.669L179.545 196.917M175.5 190.669L172.716 186.515M213.63 189.777L208.695 183.083H210.938M213.63 189.777L218.116 195.796M213.63 189.777L207.35 187.545H197.481L188.06 186.515H172.716M210.938 183.083L214.284 187.545M210.938 183.083V107.091M189.855 217H192.546M192.546 217L188.212 210.306M179.545 196.917L218.116 195.796M179.545 196.917L183.879 203.612M218.116 195.796L222.942 202.273M222.942 202.273L183.879 203.612M222.942 202.273L227.93 208.967M183.879 203.612L188.212 210.306M188.212 210.306L227.93 208.967M214.284 187.545V107.305M286.301 181.298L327.122 183.435M286.301 181.298V180.851M332.505 183.717V116.587H327.122V118.818M332.505 183.717L327.122 183.435M327.122 183.435V180.135M286.301 111.678L293.927 114.802L350 117.479V113.017M286.301 111.678V106.322M286.301 111.678V122.388M286.301 106.322L293.927 109.893L350 113.017M286.301 106.322V96.9504M350 113.017L286.301 96.9504M286.301 96.9504V42.0579M286.301 122.388L327.122 118.818M286.301 122.388V161.215M327.122 118.818V161.215M286.301 161.215V165.678M286.301 161.215H306.711M327.122 161.215V165.678M327.122 161.215H309.179M327.122 165.678H286.301M327.122 165.678V167.909M286.301 165.678V168.355M286.301 168.355L327.122 167.909M286.301 168.355V171.926M327.122 167.909V171.033M327.122 171.033L286.301 171.926M327.122 171.033V173.711M286.301 171.926V174.157M286.301 174.157L327.122 173.711M286.301 174.157V177.727M327.122 173.711V176.835M327.122 176.835L286.301 177.727M327.122 176.835V180.135M286.301 177.727V180.851M286.301 180.851L306.711 180.493M327.122 180.135L309.179 180.45M306.711 161.215V180.493M306.711 161.215H309.179M306.711 180.493L309.179 180.45M309.179 161.215V180.45M302.898 38.4876L192.995 22.8678L186.715 25.5455L88.4743 11.7107L1 50.9835M302.898 38.4876V32.686M302.898 38.4876L286.301 42.0579M1 50.9835V46.0744L88.4743 4.57025M88.4743 4.57025L186.715 18.8512L192.995 15.7273L302.898 32.686M88.4743 4.57025L137.37 1L199.724 14.3884L209.593 11.7107L302.898 32.686M233.816 104.091V108.554L214.284 107.305M233.816 104.091L108.212 96.0579L73.6709 102.306M233.816 104.091H235.162V103.198M73.6709 102.306V106.322L108.212 100.521L113.147 100.836M73.6709 102.306L71.428 102.752V101.413L96.1003 94.719M96.1003 94.719L131.09 81.7769L188.06 85.7934M96.1003 94.719V159.876M188.06 85.7934L196.045 90.2562M188.06 85.7934V126.405M196.045 90.2562L196.584 187.545L188.06 185.76V126.405M196.045 90.2562L213.63 91.595L219.013 94.2727M235.162 102.306V103.198M235.162 102.306V93.5902M235.162 102.306L232.47 100.967M113.147 100.836L119.427 101.238M113.147 100.836L113.444 159.876M113.595 189.899L119.427 189.791M113.595 189.899L101.932 190.115M113.595 189.899L113.565 183.975M119.427 189.791V161.661M119.427 189.791L122.118 189.741M119.427 101.238L165.183 104.164M119.427 101.238V159.876M165.183 104.164L169.668 104.451M165.183 104.164L165.477 159.876M165.631 188.934L165.487 161.661M165.631 188.934L162.042 189.001M169.668 183.975H171.014L172.716 186.515M169.668 183.975V126.405M169.668 104.451L210.938 107.091M169.668 104.451V126.405M210.938 107.091L214.284 107.305M219.013 94.2727V92.4876M219.013 94.2727L232.47 100.967M235.162 103.198L249.068 104.037M219.013 88.9174V45.6281L232.47 47.3345M219.013 88.9174V92.4876M219.013 88.9174L232.47 89.9674M264.769 92.4876V51.4298L250.862 49.6665M264.769 92.4876V95.6116M264.769 92.4876L250.862 91.4025M264.769 95.6116V104.983L250.862 104.145M264.769 95.6116L250.862 94.6621M219.013 92.4876L232.47 93.4064M232.47 47.3345V89.9674M232.47 47.3345L235.162 47.6757M232.47 89.9674L235.162 90.1774M235.162 47.6757V90.1774M235.162 47.6757L249.068 49.439M235.162 90.1774L249.068 91.2625M249.068 49.439V91.2625M249.068 49.439L250.862 49.6665M249.068 91.2625L250.862 91.4025M250.862 49.6665V91.4025M249.068 94.5396V104.037M249.068 94.5396L250.862 94.6621M249.068 94.5396L235.162 93.5902M249.068 104.037L250.862 104.145M250.862 94.6621V104.145M235.162 93.5902L232.47 93.4064M232.47 93.4064V100.967M219.013 171.926V119.264L232.47 120.022M219.013 171.926V175.05M219.013 171.926H232.47M262.974 171.926V121.739L251.311 121.083M262.974 171.926V174.157M262.974 171.926H251.311M219.013 175.05V184.868L232.47 184.595M219.013 175.05L232.47 174.776M262.974 174.157V183.975L251.311 184.212M262.974 174.157L251.311 174.394M232.47 120.022V171.926M232.47 120.022L235.162 120.174M232.47 171.926H235.162M235.162 120.174V171.926M235.162 120.174L249.068 120.956M235.162 171.926H249.068M249.068 120.956V171.926M249.068 120.956L251.311 121.083M249.068 171.926H251.311M251.311 121.083V171.926M251.311 174.394V184.212M251.311 174.394L249.068 174.439M251.311 184.212L249.068 184.258M249.068 174.439V184.258M249.068 174.439L235.162 174.722M249.068 184.258L235.162 184.54M235.162 174.722V184.54M235.162 174.722L232.47 174.776M235.162 184.54L232.47 184.595M232.47 174.776V184.595M96.1003 161.661V159.876M96.1003 161.661H97.8946M113.453 161.661L113.444 159.876M113.453 161.661H101.932M113.453 161.661L113.475 166.124M96.1003 159.876H113.444M119.427 159.876H165.477M119.427 159.876V161.661M165.477 159.876L165.487 161.661M119.427 161.661H122.118M165.487 161.661H162.042M162.042 161.661H122.118M162.042 161.661V165.678M162.042 189.001L122.118 189.741M162.042 189.001V183.975M122.118 161.661V165.678M122.118 189.741V183.975M122.118 165.678H162.042M122.118 165.678V169.248M162.042 165.678V169.248M122.118 169.248H162.042M122.118 169.248V173.264M162.042 169.248V173.264M122.118 173.264H162.042M122.118 173.264V176.388M162.042 173.264V176.388M122.118 176.388H162.042M122.118 176.388V180.851M162.042 176.388V180.851M122.118 180.851H162.042M122.118 180.851V183.975M162.042 180.851V183.975M122.118 183.975H162.042M97.8946 161.661V190.19M97.8946 161.661H101.932M97.8946 190.19L101.932 190.115M101.932 161.661V166.124M101.932 190.115V183.975M101.932 166.124H113.475M101.932 166.124V168.802M113.475 166.124L113.489 168.802M101.932 168.802H113.489M101.932 168.802V173.264M113.489 168.802L113.511 173.264M101.932 173.264H113.511M101.932 173.264V176.388M113.511 173.264L113.527 176.388M101.932 176.388H113.527M101.932 176.388V180.851M113.527 176.388L113.55 180.851M101.932 180.851H113.55M101.932 180.851V183.975M113.55 180.851L113.565 183.975M101.932 183.975H113.565M169.668 126.405H188.06M56.1761 48.3058V104.983L63.3535 103.645V45.1818L56.1761 48.3058ZM123.464 35.8099V52.3223L143.65 54.5537V38.4876L123.464 35.8099ZM161.145 40.719V56.3388L179.986 58.5702V42.9504L161.145 40.719ZM124.361 127.298V141.132H141.407V127.298H124.361Z" stroke="black" stroke-opacity="0.3"/>
<rect x="183" y="164" width="3" height="1" fill="black" fill-opacity="0.3"/>
</svg>
