<svg width="433" height="188" viewBox="0 0 433 188" fill="none" xmlns="http://www.w3.org/2000/svg">
<path d="M21.3851 161.328H7.30968V180.703L145.637 184.094L146.123 183.948M21.3851 161.328V103.203M21.3851 161.328L33.0338 161.419M146.123 162.297V183.948M146.123 162.297L144.181 162.282M146.123 162.297L150.491 162.228M256.3 164.234V183.125M256.3 164.234L244.651 164.093M256.3 164.234L256.785 164.203M322.309 158.422V176.828L316.97 177.807M322.309 158.422V110.401M322.309 158.422L316.97 159.349M256.3 183.125L289.789 179.734L292.216 180.219M256.3 183.125L194.659 182.156M194.659 182.156L168.449 184.094M194.659 182.156V177.312M168.449 184.094L150.491 182.641M168.449 184.094V178.766M150.491 182.641L148.064 183.367M150.491 182.641V168.594M146.123 183.948L148.064 183.367M155.345 168.109H148.064V183.367M155.345 168.109L182.525 167.625V171.5H188.834V171.984M155.345 168.109V172.953H161.654M168.449 178.766L194.659 177.312M168.449 178.766H161.654V172.953M194.659 177.312V176.828H188.834V171.984M161.654 172.953L188.834 171.984M33.0338 102.234V161.419M33.0338 161.419L35.4606 161.437M35.4606 102.234V139.531M35.4606 161.437V139.531M35.4606 161.437L57.3018 161.607M100.984 99.8125V105.141M100.984 161.946L113.604 162.044M100.984 161.946L92.2477 161.878M100.984 161.946V139.531M113.604 98.8438V162.044M113.604 162.044L116.516 162.067M116.516 98.8438V105.141M116.516 162.067V105.141M116.516 162.067L118.457 162.082M142.725 97.875V90.125M142.725 97.875L144.181 98.2383M142.725 97.875L131.562 98.3427M144.667 98.3594V90.6094L142.725 90.125M144.667 98.3594L144.181 98.2383M144.667 98.3594L244.651 94.4844M142.725 90.125L136.901 89.1562M142.725 90.125L173.788 94V91.5781M14.5901 94.9688L136.901 89.1562M14.5901 94.9688V94.4844L4.88288 94.9056M14.5901 94.9688V97.3906M136.901 89.1562V83.8281M3.4268 90.125V94.9688L4.88288 94.9056M3.4268 90.125L136.901 83.8281M3.4268 90.125H1V83.3438L136.901 75.5938M136.901 83.8281V75.5938M136.901 83.8281L170.876 88.7356M14.5901 97.3906V103.203H15.5608L67.009 101.047M14.5901 97.3906L4.88288 94.9056M136.901 75.5938L148.064 77.3444M170.876 80.9219L184.466 80.3235L185.437 80.2808M170.876 80.9219L166.751 80.2749M170.876 80.9219V88.7356M203.881 79.4688V80.9219L222.324 80.4375V78.5M203.881 79.4688L186.408 80.2381L185.437 80.2808M203.881 79.4688V39.2656L185.437 40.8662M222.324 78.5L244.651 77.5312V35.6173M222.324 78.5V37.3281L244.651 35.6173M244.651 19.8906L256.785 18.4375M244.651 19.8906L140.298 28.6094V32.9688M244.651 19.8906V35.6173M244.651 164.093L176.7 163.266V161.812L171.361 161.897M244.651 164.093V150.188M256.785 164.203V18.4375M256.785 164.203L266.977 163.551M256.785 18.4375L266.977 21.8281M256.785 18.4375L263.58 15.0469M266.977 21.8281L289.304 30.5469M266.977 21.8281V38.2969M266.977 90.125H265.521V95.9375H266.492M266.977 90.125L289.304 89.3245M266.977 90.125V38.2969M266.492 95.9375V103.203H266.977M266.492 95.9375L348.033 92.5469M266.977 103.203V163.551M266.977 103.203L289.789 102.522M266.977 163.551L292.216 161.812M140.298 75.5938V44.1094M140.298 32.9688L122.825 28.125M140.298 32.9688V44.1094M122.825 28.125L263.58 15.0469M122.825 28.125V23.2812M263.58 15.0469L296.584 28.125M263.58 15.0469V9.71875M296.584 28.125L400.452 19.4062M296.584 28.125V23.2812M296.584 28.125L289.304 30.5469M400.452 19.4062L428.117 36.8438M400.452 19.4062V14.0781M400.452 19.4062L390.259 22.3125M428.117 36.8438V32M428.117 36.8438L413.556 35.875M428.117 36.8438L413.556 37.8125M428.117 32L400.452 14.0781M428.117 32L430.059 32.9688V27.1562M400.452 14.0781L296.584 23.2812M400.452 14.0781V7.78125M296.584 23.2812L263.58 9.71875M296.584 23.2812V16.9844M263.58 9.71875L122.825 23.2812M263.58 9.71875V2.9375M122.825 23.2812H120.399V17.4688M289.304 30.5469L390.259 22.3125M289.304 30.5469V46.0469M390.259 22.3125L413.556 35.875M390.259 22.3125V38.7812M413.556 35.875V37.8125M413.556 102.234L390.259 95.9375M413.556 102.234V85.2812M413.556 102.234H399.966M390.259 95.9375L375.213 96.9062V78.9844M390.259 95.9375V38.7812M375.213 78.9844L390.259 78.0156L413.556 85.2812M375.213 78.9844V71.7188L369.389 69.9497M413.556 85.2812V50.4062M399.966 102.234V175.375L396.083 176.344M399.966 102.234L396.083 101.266M396.083 108.531V101.266M396.083 108.531V176.344M396.083 108.531L392.2 107.95M396.083 101.266L376.669 96.9062V181.188L352.886 187M396.083 176.344L392.2 177.312M392.2 107.95L386.376 107.078C386.376 107.144 386.376 107.21 386.376 107.276M392.2 107.95V177.312M392.2 177.312H386.376C386.376 150.537 386.376 135.245 386.376 109.016M352.886 187V64.9375M352.886 187H348.033V109.5M352.886 64.9375H349.003M352.886 64.9375L369.389 69.9497M386.376 109.016H377.154V105.625L386.376 107.276M386.376 109.016C386.376 108.441 386.376 107.861 386.376 107.276M348.033 100.781V92.5469M348.033 100.781L289.789 102.522M348.033 100.781V105.141M348.033 92.5469V87.2188M348.033 87.2188V82.8594M348.033 87.2188L327.398 87.9586M289.789 102.522V106.594L302.409 106.279M348.033 105.141L320.367 105.831M348.033 105.141V109.5M320.367 105.831V110.469L322.309 110.401M320.367 105.831L316.97 105.916M348.033 109.5L322.309 110.401M316.97 105.916V159.349M316.97 105.916L305.806 106.194M316.97 159.349V177.807M316.97 159.349L305.806 160.968M292.216 161.812V180.219M292.216 161.812V157.453M292.216 180.219L298.526 181.188L299.982 180.921M299.982 180.921V161.812M299.982 180.921L316.97 177.807M292.216 157.453V114.828L299.982 115.797V157.938M292.216 157.453L299.982 157.938M299.982 157.938V161.812M299.982 161.812L302.894 161.39M120.399 17.4688H118.943V16.0156L265.521 1M120.399 17.4688L263.58 2.9375M265.521 1L298.041 15.5312M265.521 1L263.58 2.9375M298.041 15.5312L402.393 5.84375M298.041 15.5312L296.584 16.9844M402.393 5.84375L432 26.1875V27.1562H430.059M402.393 5.84375L400.452 7.78125M430.059 27.1562L400.452 7.78125M400.452 7.78125L296.584 16.9844M296.584 16.9844L263.58 2.9375M413.556 37.8125V50.4062M289.304 89.3245L293.672 89.1679M289.304 89.3245V46.0469M355.798 60.0938V62.0312M355.798 60.0938L369.389 64.8406M355.798 60.0938L349.003 60.5313M355.798 62.0312L349.003 62.4323M355.798 62.0312L369.389 66.7781M293.672 65.6979L265.521 67.3594V65.9062L327.398 61.9223M293.672 65.6979V89.1679M293.672 65.6979L321.823 64.0365M293.672 89.1679L308.233 88.6458M321.823 64.0365V88.1585M321.823 64.0365L327.398 63.7074M321.823 88.1585L327.398 87.9586M321.823 88.1585L308.233 88.6458M348.033 65.9062V64.9375H349.003M348.033 65.9062V82.8594M348.033 65.9062L327.398 67.1336M348.033 82.8594L327.398 83.6776M148.064 77.3444V44.1094L166.751 42.4878M148.064 77.3444L165.537 80.0846L166.751 80.2749M244.651 35.6173L140.298 44.1094M244.651 35.6173V89.1562M308.233 68.2736L274.743 70.2656V85.7656L308.233 84.4376M308.233 68.2736V45.0781L327.162 43.7288M308.233 68.2736L327.398 67.1336M369.389 64.8406L375.213 66.875V68.8125L369.389 66.7781M369.389 64.8406V40.7188L349.003 42.1719M349.003 42.1719V60.5313M349.003 42.1719L327.162 43.7288M349.003 60.5313L327.398 61.9223M327.162 43.7288L327.398 61.9223M327.398 63.7074V67.1336M327.398 63.7074L349.003 62.4323M327.398 83.6776V87.9586M327.398 83.6776L308.233 84.4376M308.233 84.4376V88.6458M349.003 62.4323V64.9375M369.389 66.7781V69.9497M185.437 40.8662V80.2808M185.437 40.8662L166.751 42.4878M166.751 42.4878V80.2749M244.651 150.188H222.324V111.438L244.651 110.953M244.651 150.188V110.953M244.651 110.953V109.984M144.181 98.2383V112.891M144.181 162.282L131.562 162.184M144.181 162.282V112.891M131.562 162.184V98.3427M131.562 162.184L118.457 162.082M131.562 98.3427L67.009 101.047M67.009 101.047V161.682M67.009 161.682L79.143 161.777M67.009 161.682L57.3018 161.607M92.2477 161.878V105.141H100.984M92.2477 161.878L79.143 161.777M100.984 105.141V139.531M116.516 105.141H118.457V162.082M35.4606 139.531H57.3018M100.984 139.531H79.143M79.143 139.531V161.777M79.143 139.531H57.3018M57.3018 139.531V161.607M244.651 94.4844V109.984M244.651 94.4844V89.1562M244.651 109.984L171.361 112.104M144.181 112.891L150.491 112.708M305.806 106.194V160.968M305.806 106.194L304.836 106.218M305.806 160.968L304.836 161.108M302.409 106.279L302.894 161.39M302.409 106.279L304.836 106.218M302.894 161.39L304.836 161.108M304.836 106.218V161.108M173.788 91.5781V89.1562L170.876 88.7356M173.788 91.5781L244.651 89.1562M266.977 38.2969L289.304 46.0469M289.304 46.0469L390.259 38.7812M390.259 38.7812L413.556 50.4062M150.491 112.708V162.228M150.491 112.708L171.361 112.104M150.491 162.228L171.361 161.897M171.361 161.897V112.104" stroke="black" stroke-opacity="0.3"/>
</svg>
