<svg width="394" height="259" viewBox="0 0 394 259" fill="none" xmlns="http://www.w3.org/2000/svg">
<path d="M381 116.5L314.5 25L296.891 44.5M381 116.5V232L240 234V107.5L296.891 44.5M381 116.5L354 119.5M296.891 44.5L354 119.5M354 119.5L352 232M103.5 226V163.5L133 161.5V228.5" stroke="black" stroke-opacity="0.3"/>
<path d="M313.5 1L139 61.5L72.5 129.5M313.5 1L224.5 100.5M313.5 1L393 111V246.5L224.5 255.5M72.5 129.5V223M72.5 129.5L224.5 100.5M72.5 223H1M72.5 223L184.5 236M1 223V237.5L98 257.5M1 223L90 239M98 257.5L193.5 252M98 257.5V251.5M193.5 252V246.5H188.5M193.5 252L224.5 255.5M188.5 246.5V240.5H184.5M188.5 246.5L98 251.5M184.5 240.5V236M184.5 240.5L94 245.5M184.5 236L90 239M98 251.5H94V245.5M94 245.5L90 245V239M224.5 255.5V100.5" stroke="black" stroke-opacity="0.3"/>
<path d="M240 158.5H254L252.5 229L240 229.5V229M259.5 230H283V158.5H259.5V230ZM288 230V158.5H311V229.5L288 230ZM316 158.5H336.5V229L315.5 229.5L316 158.5Z" stroke="black" stroke-opacity="0.3"/>
<path d="M254 92V139.5H240" stroke="black" stroke-opacity="0.3"/>
<path d="M284 59V140.5H259.5V86" stroke="black" stroke-opacity="0.3"/>
<path d="M289 54.5L341.5 125.5L339.5 232.5M289 62.5L311 90.5V142H289V62.5ZM316.5 99V142.5L336.5 143V125.5L316.5 99Z" stroke="black" stroke-opacity="0.3"/>
</svg>
