<svg width="41" height="41" viewBox="0 0 41 41" fill="none" xmlns="http://www.w3.org/2000/svg">
<path d="M9.82486 1.71026C7.82115 3.20765 7.65957 3.39078 7.79961 3.95096C7.89656 4.328 11.6777 7.13965 12.0871 7.13965C12.6581 7.13965 13.0782 6.48252 12.8627 5.91157C12.8304 5.81462 12.4534 5.49144 12.0332 5.17903L11.2684 4.60809L17.6996 4.57577C21.233 4.565 27.0287 4.565 30.5621 4.57577L36.9934 4.60809L36.2285 5.17903C35.8084 5.49144 35.4313 5.81462 35.399 5.91157C35.1836 6.48252 35.6037 7.13965 36.1747 7.13965C36.584 7.13965 40.3652 4.328 40.4621 3.95096C40.6022 3.39078 40.4406 3.20765 38.4369 1.71026C36.3147 0.11591 36.0885 0.0189562 35.6037 0.514496C35.3452 0.762266 35.2698 1.12853 35.399 1.47326C35.4313 1.57021 35.8084 1.89339 36.2285 2.2058L36.9934 2.77674L30.5621 2.80906C27.0287 2.81983 21.233 2.81983 17.6996 2.80906L11.2684 2.77674L12.0332 2.2058C12.4534 1.89339 12.8304 1.57021 12.8627 1.47326C12.992 1.12853 12.9166 0.762266 12.6581 0.514496C12.1733 0.0189562 11.9471 0.11591 9.82486 1.71026Z" fill="#726F6F"/>
<path d="M3.04865 8.14079C2.91938 8.21619 2.17607 9.11032 1.41121 10.1445C-0.118499 12.1913 -0.215452 12.4175 0.269315 12.9023C0.517085 13.1608 0.883354 13.2362 1.22808 13.107C1.32503 13.0746 1.64821 12.6976 1.96061 12.2775L2.53156 11.5126L2.56388 17.9439C2.57465 21.4773 2.57465 27.2729 2.56388 30.8063L2.53156 37.2376L1.96061 36.4727C1.64821 36.0526 1.32503 35.6756 1.22808 35.6432C0.657129 35.4278 0 35.8479 0 36.4189C0 36.8282 2.81165 40.6094 3.18869 40.7064C3.74887 40.8464 3.932 40.6848 5.42939 38.6811C7.02374 36.5589 7.12069 36.3327 6.62515 35.8479C6.37738 35.5894 6.01111 35.514 5.66639 35.6432C5.56944 35.6756 5.24626 36.0526 4.93385 36.4727L4.36291 37.2376L4.33059 30.8063C4.31981 27.2729 4.31981 21.4773 4.33059 17.9439L4.36291 11.5126L4.93385 12.2775C5.24626 12.6976 5.56944 13.0746 5.66639 13.107C6.01111 13.2362 6.37738 13.1608 6.62515 12.9023C7.10992 12.4175 7.01297 12.1913 5.48326 10.1445C4.14745 8.35624 3.8135 8.01152 3.44723 8.01152C3.36105 8.01152 3.17792 8.06538 3.04865 8.14079Z" fill="#726F6F"/>
<path d="M8.02517 8.27059L7.75586 8.52913V24.3756V40.2221L8.02517 40.4807L8.28372 40.75H24.1302H39.9767L40.2353 40.4807L40.5046 40.2221V24.3756V8.52913L40.2353 8.27059L39.9767 8.00128H24.1302H8.28372L8.02517 8.27059ZM38.781 20.0666V30.4083H37.1435C35.1398 30.4083 34.3211 30.5699 33.0823 31.1839C30.8954 32.2612 29.3118 34.7497 29.3011 37.1196C29.3011 37.529 29.3549 37.6906 29.5704 37.8953L29.8289 38.1646H34.3103H38.781V38.5955V39.0264H24.1302H9.47948V24.3756V9.72489H24.1302H38.781V20.0666ZM38.781 34.2864V36.441H34.9459H31.1109L31.1755 36.0855C31.4125 34.9005 32.5652 33.4031 33.7071 32.789C34.6981 32.2612 35.3122 32.1427 37.1435 32.1427L38.781 32.1319V34.2864Z" fill="#726F6F"/>
<path d="M26.9842 11.7176C26.8118 11.8792 26.7148 12.1054 26.7148 12.3101C26.7148 12.5148 26.8118 12.741 26.9842 12.9026C27.2319 13.1611 27.2966 13.1719 28.7078 13.1719H30.1621V13.6028V14.0337H28.7078C27.2966 14.0337 27.2319 14.0445 26.9842 14.303C26.7256 14.5508 26.7148 14.6047 26.7148 16.1883C26.7148 17.7718 26.7256 17.8257 26.9842 18.0735C27.2427 18.3428 27.2642 18.3428 29.3003 18.3428C31.3363 18.3428 31.3578 18.3428 31.6164 18.0735C31.7887 17.9119 31.8857 17.6856 31.8857 17.481C31.8857 17.2763 31.7887 17.0501 31.6164 16.8885C31.3686 16.6299 31.304 16.6192 29.8928 16.6192H28.4385V16.1883V15.7573H29.8928C31.304 15.7573 31.3686 15.7466 31.6164 15.488C31.8749 15.2403 31.8857 15.1864 31.8857 13.6028C31.8857 12.0192 31.8749 11.9654 31.6164 11.7176C31.3578 11.4483 31.3363 11.4483 29.3003 11.4483C27.2642 11.4483 27.2427 11.4483 26.9842 11.7176Z" fill="#726F6F"/>
<path d="M15.781 18.6121L15.5117 18.8706V24.3754V29.8802L15.781 30.1387C16.0934 30.4619 16.5782 30.4835 16.9229 30.2034L17.1815 29.9987L17.2353 26.1529L17.2892 22.2963L18.6681 24.5154C20.6933 27.7688 20.661 27.7688 22.6863 24.5047L24.0759 22.2747L24.1298 26.1421L24.1837 29.9987L24.4422 30.2034C24.7869 30.4835 25.2717 30.4619 25.5841 30.1387L25.8534 29.8802V24.3754V18.8706L25.5841 18.6121C25.3148 18.332 24.9054 18.2673 24.5715 18.4397C24.4745 18.4936 23.5696 19.8509 22.557 21.456C21.5552 23.0611 20.7041 24.3754 20.6718 24.3754C20.6395 24.3754 19.8208 23.1042 18.862 21.5422C17.8925 19.9909 17.0091 18.6336 16.8906 18.5259C16.5782 18.2566 16.0934 18.2889 15.781 18.6121Z" fill="#726F6F"/>
</svg>
