<svg width="299" height="231" viewBox="0 0 299 231" fill="none" xmlns="http://www.w3.org/2000/svg">
<path d="M128.144 218.6V122.935M128.144 218.6L123.674 218.358M128.144 218.6L156.453 217.756M161.42 207.199L206.119 206.208M161.42 207.199V213.147M161.42 207.199L156.453 207.312M135.594 1V15.3745L125.661 23.3198M135.594 1L72.0217 25.2879L1 79.8117M135.594 1L57.1221 62.9589M1 79.8117V145.736L3.48328 145.24M1 79.8117L3.48328 79.316M57.1221 62.9589V132.848M57.1221 62.9589L53.6455 63.9502M57.1221 132.848L134.104 94.6818M57.1221 132.848L123.674 123.926M57.1221 132.848L54.1421 133.84L53.6455 63.9502M134.104 94.6818V59.4892L220.522 36.6883M134.104 94.6818L206.119 81.2987M220.522 36.6883V125.695M220.522 36.6883L230.952 46.6939M284.59 131.743L291.047 132.353V97.1602L217.045 26.7749L124.171 53.0455V87.2468L120.694 88.9355M284.59 131.743V98.1515L274.161 88.1459M284.59 131.743L220.522 125.695M220.522 125.695L217.542 125.413L211.582 126.463M211.582 80.3074V126.463M211.582 80.3074L128.144 122.935M211.582 80.3074L206.119 81.2987M211.582 126.463L200.656 128.387V100.134L195.689 102.713M128.144 122.935L123.674 123.926M123.674 123.926L206.119 81.2987M123.674 123.926V129.874M123.674 218.358L59.1087 214.868M123.674 218.358V207.695M195.689 102.713L184.429 108.561M195.689 102.713V129.874M195.689 141.771L217.542 139.292L226.978 139.99M195.689 141.771L206.119 142.266M195.689 141.771V135.823M125.661 39.6623L217.045 10.9134L298 90.7165V145.24L293.033 144.873M125.661 39.6623V23.3198M125.661 39.6623L120.694 41.645V88.9355M125.661 23.3198L68.0485 69.4026V114.509L120.694 88.9355M293.033 144.873L226.978 139.99M293.033 144.873V146.727M206.119 212.156H211.085V217.113L216.052 217.022M206.119 212.156V206.208M206.119 212.156L161.42 213.147M206.119 206.208V142.266M206.119 206.208L293.033 205.216M206.119 206.208L184.429 204.721M206.119 142.266L216.052 141.182M226.978 139.99L216.052 141.182M293.033 146.727V205.216M293.033 146.727L270.684 145.117M216.052 141.182L219.032 141.397M293.033 205.216V215.626L216.052 217.022M59.1087 214.868L8.94649 212.156H8.44983V203.729M59.1087 214.868V225.043L128.144 230L156.453 229.009M156.453 229.009L170.856 230M156.453 229.009V218.6M170.856 230L221.515 228.513V223.556M170.856 230V224.548M216.052 217.022V218.104M156.453 217.756L161.42 217.608V213.147M156.453 217.756V218.6M156.453 218.6H165.89M165.89 218.6V224.548H170.856M165.89 218.6L216.052 218.104M170.856 224.548L221.515 223.556M221.515 223.556V223.061H216.052V218.104M3.48328 79.316V145.24M3.48328 79.316L70.0351 28.2619L124.667 7.93939L53.6455 63.9502M3.48328 79.316L53.6455 63.9502M3.48328 145.24L8.44983 144.249V203.729M230.952 46.6939V114.509L244.806 116.098M230.952 46.6939L244.806 59.9848M274.161 88.1459V119.465L259.79 117.817M274.161 88.1459L259.79 74.3593M259.79 74.3593V117.817M259.79 74.3593L244.806 59.9848M259.79 117.817L244.806 116.098M244.806 59.9848V116.098M270.684 145.117V192.825H254.791M270.684 145.117L254.791 143.973M219.032 141.397V192.825H236.415M219.032 141.397L236.415 142.649M236.415 142.649V192.825M236.415 142.649L254.791 143.973M236.415 192.825H254.791M254.791 143.973V192.825M142.547 130.31L140.521 131.361M142.547 130.31L146.023 128.504M142.547 130.31V206.208M142.547 207.627L140.521 207.673M142.547 207.627L146.023 207.548M142.547 207.627V206.208M140.521 131.361L139.567 131.857V207.695L140.521 207.673M140.521 131.361V207.673M147.513 127.731V207.515M147.513 127.731L149.5 126.699M147.513 127.731L146.023 128.504M147.513 207.515L149.5 207.47M147.513 207.515L146.023 207.548M149.5 207.47L152.93 207.392M149.5 207.47V205.712M149.5 126.699L152.93 124.918M149.5 126.699V205.712M146.023 128.504V205.712M146.023 207.548V205.712M154.839 123.926V207.348M154.839 123.926L156.453 123.088M154.839 123.926L152.93 124.918M154.839 207.348L156.453 207.312M154.839 207.348L152.93 207.392M156.453 207.312V205.712M156.453 123.088L172.346 114.835M156.453 123.088V201.251M152.93 124.918V205.712M152.93 207.392V205.712M184.429 108.561L175.326 113.288M184.429 108.561V131.361M184.429 204.721L175.326 205.043M184.429 204.721V136.814M156.453 205.712L173.339 205.114M156.453 205.712V201.251M152.93 205.712H149.5M146.023 205.712L142.547 206.208M175.326 113.288V205.043M175.326 113.288L172.346 114.835M175.326 205.043L173.339 205.114M172.346 114.835V200.755M172.346 200.755H173.339V205.114M172.346 200.755L156.453 201.251M184.429 136.814L195.689 135.823M184.429 136.814V131.361M195.689 135.823V129.874M184.429 131.361L195.689 129.874M123.674 207.695V129.874M123.674 207.695L120.197 207.524M123.674 207.695L8.44983 203.729M123.674 129.874L120.197 130.33M95.3645 133.58L93.3779 133.84V206.208L95.3645 206.305M95.3645 133.58V206.305M95.3645 133.58L99.8344 132.995M95.3645 206.305L99.8344 206.525M99.8344 132.995V206.525M99.8344 132.995L104.304 132.41M99.8344 206.525L104.304 206.744M104.304 132.41V206.744M104.304 132.41L108.526 131.857M104.304 206.744L108.526 206.951M108.526 131.857V206.951M108.526 131.857L112.313 131.361M108.526 206.951L112.313 207.137M112.313 131.361V207.137M112.313 131.361L116.721 130.785M112.313 207.137L116.721 207.354M116.721 130.785V207.354M116.721 130.785L120.197 130.33M116.721 207.354L120.197 207.524M120.197 130.33V207.524M138.077 70.3939V88.2381L153.473 84.2727V65.9329L138.077 70.3939ZM157.446 64.9416V84.2727L174.333 79.8117V60.4805L157.446 64.9416ZM178.803 59.4892V79.8117L196.682 75.3507V55.0281L178.803 59.4892ZM77.485 143.258V192.329H84.9348V142.266L77.485 143.258ZM66.0619 144.249V192.329H74.0084V143.258L66.0619 144.249Z" stroke="black" stroke-opacity="0.3"/>
</svg>
