<svg width="31" height="11" viewBox="0 0 31 11" fill="none" xmlns="http://www.w3.org/2000/svg">
<path d="M24.799 0.914895L24.3963 1.31847L26.2195 3.12918L28.0464 4.94347H19.9442H0V5.51489V6.08632H19.9442H28.0464L26.2195 7.90061L24.3963 9.71132L24.8026 10.1149L25.2054 10.5149L27.7227 8.01489L30.24 5.51489L27.7227 3.01489L25.2054 0.514895L24.799 0.914895Z" fill="#514D4E"/>
<path d="M24.7991 0.914895L24.3964 1.31847L26.2196 3.12918L28.0465 4.94347H19.9443H20.0001V5.51489V6.08632H19.9443H28.0465L26.2196 7.90061L24.3964 9.71132L24.8027 10.1149L25.2055 10.5149L27.7228 8.01489L30.2401 5.51489L27.7228 3.0149L25.2055 0.514895L24.7991 0.914895Z" fill="#EAEAEA"/>
</svg>
