<svg width="40" height="40" viewBox="0 0 40 40" fill="none" xmlns="http://www.w3.org/2000/svg">
<path d="M38.75 20C38.75 30.3553 30.3553 38.75 20 38.75C9.64466 38.75 1.25 30.3553 1.25 20C1.25 9.64466 9.64466 1.25 20 1.25C30.3553 1.25 38.75 9.64466 38.75 20Z" fill="#514D4E" stroke="#514D4E" stroke-width="2.5"/>
<path d="M17.8566 11.4282V10.1782H16.6066V11.4282H17.8566ZM16.6066 29.9997V31.2497H19.1066V29.9997H16.6066ZM14.2852 24.4639C13.5948 24.4639 13.0352 25.0236 13.0352 25.7139C13.0352 26.4043 13.5948 26.9639 14.2852 26.9639V24.4639ZM22.1423 26.9639C22.8327 26.9639 23.3923 26.4043 23.3923 25.7139C23.3923 25.0236 22.8327 24.4639 22.1423 24.4639V26.9639ZM14.2852 19.4639C13.5948 19.4639 13.0352 20.0236 13.0352 20.7139C13.0352 21.4043 13.5948 21.9639 14.2852 21.9639V19.4639ZM27.678 16.0711V14.8211H25.178V16.0711H27.678ZM16.6066 25.7139V29.9997H19.1066V25.7139H16.6066ZM17.8566 24.4639H14.2852V26.9639H17.8566V24.4639ZM22.1423 24.4639H17.8566V26.9639H22.1423V24.4639ZM16.6066 11.4282V20.7139H19.1066V11.4282H16.6066ZM16.6066 20.7139V25.7139H19.1066V20.7139H16.6066ZM17.8566 19.4639H14.2852V21.9639H17.8566V19.4639ZM17.8566 21.9639H21.7852V19.4639H17.8566V21.9639ZM21.7852 10.1782H17.8566V12.6782H21.7852V10.1782ZM21.7852 12.6782C23.659 12.6782 25.178 14.1973 25.178 16.0711H27.678C27.678 12.8165 25.0397 10.1782 21.7852 10.1782V12.6782ZM21.7852 21.9639C25.0397 21.9639 27.678 19.3256 27.678 16.0711H25.178C25.178 17.9449 23.659 19.4639 21.7852 19.4639V21.9639Z" fill="#F5F5F5"/>
</svg>
