<svg width="19" height="11" viewBox="0 0 19 11" fill="none" xmlns="http://www.w3.org/2000/svg">
<path fill-rule="evenodd" clip-rule="evenodd" d="M17.7681 1.64497C17.8906 1.25855 17.7681 0.974609 17.1852 0.974609H15.2574C14.7673 0.974609 14.5413 1.21989 14.4188 1.49037C14.4188 1.49037 13.4385 3.7509 12.0497 5.21926C11.6004 5.6443 11.3962 5.77954 11.1511 5.77954C11.0286 5.77954 10.8512 5.6443 10.8512 5.25792V1.64497C10.8512 1.18127 10.709 0.974609 10.3005 0.974609H7.27121C6.96491 0.974609 6.78069 1.18983 6.78069 1.39379C6.78069 1.83337 7.47503 1.93475 7.5466 3.17129V5.85686C7.5466 6.44566 7.4342 6.55241 7.18912 6.55241C6.53562 6.55241 4.94597 4.28179 4.00316 1.6836C3.81839 1.1786 3.63307 0.974609 3.1404 0.974609H1.21269C0.661918 0.974609 0.551758 1.21989 0.551758 1.49037C0.551758 1.9734 1.20529 4.36917 3.59473 7.53774C5.18768 9.70162 7.43204 10.8746 9.47431 10.8746C10.6997 10.8746 10.8512 10.6141 10.8512 10.1653V8.52987C10.8512 8.00882 10.9673 7.90483 11.3554 7.90483C11.6413 7.90483 12.1314 8.04007 13.2751 9.08339C14.5821 10.3199 14.7976 10.8746 15.5328 10.8746H17.4605C18.0113 10.8746 18.2867 10.6141 18.1278 10.0999C17.954 9.58753 17.3299 8.84408 16.5019 7.96279C16.0526 7.46046 15.3786 6.9195 15.1744 6.64896C14.8885 6.30123 14.9702 6.14663 15.1744 5.83753C15.1744 5.83753 17.523 2.70758 17.7681 1.64497Z" fill="#726F6F"/>
</svg>
